<?xml version="1.0" encoding="UTF-8" standalone="no"?>
<!-- Created with Inkscape (http://www.inkscape.org/) -->

<svg
   xmlns:dc="http://purl.org/dc/elements/1.1/"
   xmlns:cc="http://creativecommons.org/ns#"
   xmlns:rdf="http://www.w3.org/1999/02/22-rdf-syntax-ns#"
   xmlns:svg="http://www.w3.org/2000/svg"
   xmlns="http://www.w3.org/2000/svg"
   xmlns:sodipodi="http://sodipodi.sourceforge.net/DTD/sodipodi-0.dtd"
   xmlns:inkscape="http://www.inkscape.org/namespaces/inkscape"
   width="97.013885mm"
   height="97.013885mm"
   viewBox="0 0 97.013885 97.013885"
   version="1.1"
   id="svg9913"
   inkscape:version="0.92.2 2405546, 2018-03-11"
   sodipodi:docname="gcoco-barb-rev.svg">
  <defs
     id="defs9907">
    <clipPath
       clipPathUnits="userSpaceOnUse"
       id="clipPath7129">
      <path
         d="M 0,3285 H 906 V 0 H 0 Z"
         id="path7127"
         inkscape:connector-curvature="0" />
    </clipPath>
  </defs>
  <sodipodi:namedview
     id="base"
     pagecolor="#ffffff"
     bordercolor="#666666"
     borderopacity="1.0"
     inkscape:pageopacity="0.0"
     inkscape:pageshadow="2"
     inkscape:zoom="0.7"
     inkscape:cx="-344.70534"
     inkscape:cy="93.806652"
     inkscape:document-units="mm"
     inkscape:current-layer="layer3"
     showgrid="false"
     inkscape:window-width="1366"
     inkscape:window-height="703"
     inkscape:window-x="0"
     inkscape:window-y="0"
     inkscape:window-maximized="1"
     showguides="true"
     inkscape:guide-bbox="true"
     fit-margin-top="0"
     fit-margin-left="0"
     fit-margin-right="0"
     fit-margin-bottom="0" />
  <metadata
     id="metadata9910">
    <rdf:RDF>
      <cc:Work
         rdf:about="">
        <dc:format>image/svg+xml</dc:format>
        <dc:type
           rdf:resource="http://purl.org/dc/dcmitype/StillImage" />
        <dc:title />
      </cc:Work>
    </rdf:RDF>
  </metadata>
  <g
     inkscape:groupmode="layer"
     id="layer2"
     inkscape:label="Layer 3"
     style="display:none"
     transform="translate(-58.082344,-36.826389)">
    <g
       id="g7181"
       transform="matrix(0.35277777,0,0,-0.35277777,80.96658,59.357847)"
       style="display:inline;fill:#000000">
      <path
         d="m 0,0 2.976,-3.06 0.671,0.654 c 0.452,0.439 0.497,0.885 -0.131,1.53 L 2.197,0.479 C 1.569,1.125 1.123,1.093 0.671,0.653 Z M 3.705,1.77 4.848,0.596 C 6.254,-0.85 6.323,-2.316 4.903,-3.697 L 4.232,-4.35 7.535,-7.745 6.115,-9.127 -2.676,-0.09 -0.585,1.944 c 1.42,1.381 2.883,1.272 4.29,-0.174"
         style="fill:#000000;fill-opacity:1;fill-rule:nonzero;stroke:none"
         id="path7183"
         inkscape:connector-curvature="0" />
    </g>
    <g
       id="g7185"
       transform="matrix(0.35277777,0,0,-0.35277777,83.242949,57.293743)"
       style="display:inline;fill:#000000">
      <path
         d="m 0,0 2.454,-2.992 0.598,0.491 c 0.571,0.468 0.713,1.003 0.074,1.783 L 2.339,0.242 C 1.768,0.937 1.28,1.05 0.738,0.604 Z m 8.518,-6.98 c -0.289,0.182 -0.47,0.289 -1.121,1.083 l -1.255,1.53 C 5.4,-3.462 4.82,-3.379 4.124,-3.95 L 3.595,-4.384 6.848,-8.35 5.317,-9.605 -2.672,0.136 -0.362,2.031 C 1.225,3.332 2.511,3.153 3.744,1.65 L 4.372,0.885 c 0.821,-1.002 1.038,-1.918 0.618,-2.798 1.028,0.308 1.884,-0.224 2.717,-1.24 l 1.232,-1.503 c 0.389,-0.473 0.688,-0.81 1.138,-1.046 z"
         style="fill:#000000;fill-opacity:1;fill-rule:nonzero;stroke:none"
         id="path7187"
         inkscape:connector-curvature="0" />
    </g>
    <g
       id="g7189"
       transform="matrix(0.35277777,0,0,-0.35277777,87.307301,57.689067)"
       style="display:inline;fill:#000000">
      <path
         d="m 0,0 c 0.509,-0.742 1.029,-0.8 1.548,-0.444 0.52,0.356 0.653,0.862 0.144,1.605 L -2.155,6.772 C -2.664,7.515 -3.184,7.573 -3.703,7.217 -4.223,6.861 -4.356,6.354 -3.847,5.612 Z m -5.409,4.389 c -1.14,1.663 -0.915,3.214 0.688,4.313 1.603,1.099 3.131,0.749 4.271,-0.914 L 3.254,2.384 C 4.394,0.721 4.169,-0.83 2.566,-1.929 0.963,-3.028 -0.564,-2.678 -1.705,-1.016 Z"
         style="fill:#000000;fill-opacity:1;fill-rule:nonzero;stroke:none"
         id="path7191"
         inkscape:connector-curvature="0" />
    </g>
    <g
       id="g7193"
       transform="matrix(0.35277777,0,0,-0.35277777,89.094437,54.836682)"
       style="display:inline;fill:#000000">
      <path
         d="M 0,0 2.219,1.27 3.113,-0.292 0.894,-1.562 3.479,-6.078 1.76,-7.062 -4.5,3.876 0.047,6.478 0.941,4.916 -1.887,3.297 Z"
         style="fill:#000000;fill-opacity:1;fill-rule:nonzero;stroke:none"
         id="path7195"
         inkscape:connector-curvature="0" />
    </g>
    <g
       id="g7201"
       transform="matrix(0.35277777,0,0,-0.35277777,93.615954,50.468834)"
       style="display:inline;fill:#000000">
      <path
         d="M 0,0 C 1.803,0.678 3.134,-0.052 3.844,-1.939 L 3.983,-2.31 2.231,-2.968 2.047,-2.479 c -0.316,0.842 -0.774,1.035 -1.363,0.813 -0.59,-0.221 -0.806,-0.667 -0.49,-1.51 0.912,-2.426 4.705,-1.519 5.972,-4.888 0.709,-1.887 0.171,-3.32 -1.648,-4.003 -1.82,-0.684 -3.168,0.039 -3.878,1.926 l -0.272,0.724 1.752,0.659 0.317,-0.843 c 0.316,-0.842 0.801,-1.006 1.39,-0.784 0.59,0.221 0.846,0.664 0.53,1.506 -0.912,2.426 -4.705,1.52 -5.971,4.889 C -2.324,-2.104 -1.802,-0.677 0,0"
         style="fill:#000000;fill-opacity:1;fill-rule:nonzero;stroke:none"
         id="path7203"
         inkscape:connector-curvature="0" />
    </g>
    <g
       id="g7205"
       transform="matrix(0.35277777,0,0,-0.35277777,96.5317,49.508854)"
       style="display:inline;fill:#000000">
      <path
         d="M 0,0 C 1.853,0.526 3.12,-0.312 3.67,-2.252 L 3.779,-2.633 1.978,-3.144 1.835,-2.642 c -0.246,0.866 -0.686,1.097 -1.292,0.925 -0.606,-0.172 -0.859,-0.599 -0.613,-1.465 0.707,-2.494 4.564,-1.905 5.546,-5.369 0.55,-1.94 -0.105,-3.324 -1.976,-3.854 -1.87,-0.531 -3.154,0.302 -3.704,2.242 l -0.212,0.745 1.802,0.511 0.245,-0.866 c 0.246,-0.866 0.715,-1.069 1.322,-0.897 0.606,0.171 0.898,0.591 0.652,1.457 -0.707,2.494 -4.563,1.905 -5.546,5.369 C -2.491,-1.904 -1.853,-0.525 0,0"
         style="fill:#000000;fill-opacity:1;fill-rule:nonzero;stroke:none"
         id="path7207"
         inkscape:connector-curvature="0" />
    </g>
    <g
       id="g7209"
       transform="matrix(0.35277777,0,0,-0.35277777,98.512477,49.055819)"
       style="display:inline;fill:#000000">
      <path
         d="M 0,0 1.935,0.417 4.595,-11.897 2.66,-12.315 Z"
         style="fill:#000000;fill-opacity:1;fill-rule:nonzero;stroke:none"
         id="path7211"
         inkscape:connector-curvature="0" />
    </g>
    <g
       id="g7213"
       transform="matrix(0.35277777,0,0,-0.35277777,101.42995,51.979322)"
       style="display:inline;fill:#000000">
      <path
         d="m 0,0 c 0.131,-0.891 0.573,-1.171 1.196,-1.079 0.623,0.092 0.965,0.488 0.834,1.378 L 1.038,7.03 C 0.906,7.92 0.465,8.201 -0.158,8.109 -0.782,8.017 -1.124,7.621 -0.992,6.731 Z M -2.933,6.317 C -3.227,8.312 -2.344,9.606 -0.421,9.89 1.502,10.173 2.721,9.188 3.015,7.194 L 3.97,0.712 C 4.264,-1.282 3.381,-2.577 1.458,-2.86 c -1.923,-0.284 -3.142,0.701 -3.436,2.696 z"
         style="fill:#000000;fill-opacity:1;fill-rule:nonzero;stroke:none"
         id="path7215"
         inkscape:connector-curvature="0" />
    </g>
    <g
       id="g7217"
       transform="matrix(0.35277777,0,0,-0.35277777,104.18394,49.45407)"
       style="display:inline;fill:#000000">
      <path
         d="M 0,0 0.526,-9.113 -1.253,-9.216 -1.979,3.366 0.501,3.509 2.967,-3.905 2.532,3.626 4.293,3.729 5.02,-8.854 2.989,-8.971 Z"
         style="fill:#000000;fill-opacity:1;fill-rule:nonzero;stroke:none"
         id="path7219"
         inkscape:connector-curvature="0" />
    </g>
    <g
       id="g7221"
       transform="matrix(0.35277777,0,0,-0.35277777,107.48658,51.18282)"
       style="display:inline;fill:#000000">
      <path
         d="M 0,0 1.907,-0.06 1.153,6.338 Z m 4.39,-4.136 -1.997,0.063 -0.27,2.296 -2.429,0.076 -0.413,-2.274 -1.817,0.057 2.41,12.529 2.897,-0.09 z"
         style="fill:#000000;fill-opacity:1;fill-rule:nonzero;stroke:none"
         id="path7223"
         inkscape:connector-curvature="0" />
    </g>
    <g
       id="g7225"
       transform="matrix(0.35277777,0,0,-0.35277777,110.17446,48.287398)"
       style="display:inline;fill:#000000">
      <path
         d="m 0,0 1.967,-0.222 -1.208,-10.73 3.237,-0.364 -0.202,-1.788 -5.204,0.585 z"
         style="fill:#000000;fill-opacity:1;fill-rule:nonzero;stroke:none"
         id="path7227"
         inkscape:connector-curvature="0" />
    </g>
    <g
       id="g7229"
       transform="matrix(0.35277777,0,0,-0.35277777,115.34347,49.081994)"
       style="display:inline;fill:#000000">
      <path
         d="m 0,0 c 1.875,-0.439 2.575,-1.786 2.116,-3.748 l -0.091,-0.385 -1.821,0.427 0.118,0.508 c 0.206,0.876 -0.067,1.29 -0.68,1.434 -0.613,0.144 -1.041,-0.107 -1.246,-0.983 -0.591,-2.522 3.064,-3.878 2.243,-7.381 -0.46,-1.962 -1.703,-2.853 -3.595,-2.41 -1.892,0.443 -2.61,1.794 -2.15,3.756 l 0.176,0.754 1.822,-0.428 -0.205,-0.875 c -0.206,-0.876 0.105,-1.282 0.719,-1.425 0.613,-0.144 1.072,0.081 1.277,0.957 0.591,2.522 -3.064,3.878 -2.243,7.381 C -3.1,-0.456 -1.874,0.439 0,0"
         style="fill:#000000;fill-opacity:1;fill-rule:nonzero;stroke:none"
         id="path7231"
         inkscape:connector-curvature="0" />
    </g>
    <g
       id="g7233"
       transform="matrix(0.35277777,0,0,-0.35277777,117.47943,51.659811)"
       style="display:inline;fill:#000000">
      <path
         d="M 0,0 2.587,-0.836 2.034,-2.55 -0.554,-1.714 -1.689,-5.227 1.566,-6.279 1.013,-7.992 -4.128,-6.331 -0.251,5.664 4.89,4.002 4.336,2.289 1.08,3.341 Z"
         style="fill:#000000;fill-opacity:1;fill-rule:nonzero;stroke:none"
         id="path7235"
         inkscape:connector-curvature="0" />
    </g>
    <g
       id="g7237"
       transform="matrix(0.35277777,0,0,-0.35277777,120.65066,51.491502)"
       style="display:inline;fill:#000000">
      <path
         d="m 0,0 -1.496,-3.569 0.714,-0.3 c 0.68,-0.285 1.221,-0.16 1.611,0.77 l 0.48,1.145 c 0.347,0.83 0.218,1.314 -0.429,1.585 z m -2.183,-10.796 c 0.026,0.341 0.036,0.551 0.433,1.498 l 0.765,1.826 c 0.452,1.079 0.254,1.63 -0.576,1.978 L -2.192,-5.229 -4.175,-9.961 -6.001,-9.195 -1.13,2.426 1.625,1.271 C 3.518,0.478 3.963,-0.744 3.211,-2.537 L 2.829,-3.45 C 2.328,-4.645 1.619,-5.265 0.645,-5.306 1.398,-6.07 1.328,-7.076 0.82,-8.288 l -0.751,-1.793 c -0.236,-0.564 -0.394,-0.986 -0.392,-1.494 z"
         style="fill:#000000;fill-opacity:1;fill-rule:nonzero;stroke:none"
         id="path7239"
         inkscape:connector-curvature="0" />
    </g>
    <g
       id="g7245"
       transform="matrix(0.35277777,0,0,-0.35277777,126.00208,53.467622)"
       style="display:inline;fill:#000000">
      <path
         d="m 0,0 1.687,-1.036 -6.59,-10.734 -1.687,1.036 z"
         style="fill:#000000;fill-opacity:1;fill-rule:nonzero;stroke:none"
         id="path7247"
         inkscape:connector-curvature="0" />
    </g>
    <g
       id="g7249"
       transform="matrix(0.35277777,0,0,-0.35277777,127.58098,57.87304)"
       style="display:inline;fill:#000000">
      <path
         d="M 0,0 -0.967,-1.367 C -2.13,-3.013 -3.618,-3.371 -5.205,-2.249 -6.792,-1.126 -6.95,0.396 -5.786,2.042 L -2.004,7.39 C -0.84,9.036 0.648,9.395 2.235,8.272 3.822,7.15 3.979,5.627 2.816,3.982 L 2.109,2.983 0.581,4.063 1.36,5.166 C 1.88,5.9 1.754,6.408 1.24,6.771 0.726,7.135 0.205,7.085 -0.315,6.35 L -4.243,0.795 c -0.519,-0.734 -0.383,-1.227 0.131,-1.591 0.515,-0.364 1.025,-0.328 1.545,0.407 l 1.039,1.47 z"
         style="fill:#000000;fill-opacity:1;fill-rule:nonzero;stroke:none"
         id="path7251"
         inkscape:connector-curvature="0" />
    </g>
    <g
       id="g7197"
       transform="matrix(0.35277777,0,0,-0.35277777,91.435047,53.486214)"
       style="display:inline;fill:#000000">
      <path
         d="M 0,0 2.458,1.161 3.228,-0.467 0.769,-1.628 2.346,-4.966 5.439,-3.504 6.208,-5.133 1.324,-7.44 -4.06,3.957 0.825,6.264 1.594,4.636 -1.5,3.175 Z"
         style="fill:#000000;fill-opacity:1;fill-rule:nonzero;stroke:none"
         id="path7199"
         inkscape:connector-curvature="0" />
    </g>
    <g
       id="g7241"
       transform="matrix(0.35277777,0,0,-0.35277777,122.4724,55.639216)"
       style="display:inline;fill:#000000">
      <path
         d="M 0,0 6.121,8.393 7.73,7.546 0.146,-2.7 -2.467,-1.326 1.677,10.729 3.445,9.8 Z"
         style="fill:#000000;fill-opacity:1;fill-rule:nonzero;stroke:none"
         id="path7243"
         inkscape:connector-curvature="0" />
    </g>
    <g
       id="g7253"
       transform="matrix(0.35277777,0,0,-0.35277777,129.39877,58.165)"
       style="display:inline;fill:#000000">
      <path
         d="m 0,0 2.083,-1.747 -1.157,-1.379 -2.082,1.747 -2.371,-2.829 2.62,-2.197 -1.156,-1.379 -4.139,3.47 L 1.895,5.341 6.033,1.872 4.876,0.492 2.255,2.689 Z"
         style="fill:#000000;fill-opacity:1;fill-rule:nonzero;stroke:none"
         id="path7255"
         inkscape:connector-curvature="0" />
    </g>
    <g
       id="g7257"
       transform="matrix(0.35277777,0,0,-0.35277777,133.05196,58.876763)"
       style="display:inline;fill:#000000">
      <path
         d="m 0,0 c 1.372,-1.354 1.267,-2.87 -0.15,-4.305 l -0.278,-0.282 -1.333,1.316 0.366,0.371 c 0.633,0.641 0.617,1.137 0.168,1.58 -0.448,0.443 -0.945,0.452 -1.577,-0.188 -1.822,-1.846 0.593,-4.912 -1.937,-7.475 -1.417,-1.436 -2.945,-1.548 -4.329,-0.182 -1.384,1.367 -1.292,2.895 0.125,4.331 l 0.544,0.551 1.333,-1.316 -0.633,-0.641 c -0.632,-0.64 -0.578,-1.15 -0.13,-1.592 0.449,-0.443 0.958,-0.491 1.591,0.15 1.822,1.846 -0.593,4.912 1.937,7.475 C -2.886,1.229 -1.372,1.354 0,0"
         style="fill:#000000;fill-opacity:1;fill-rule:nonzero;stroke:none"
         id="path7259"
         inkscape:connector-curvature="0" />
    </g>
    <path
       transform="matrix(0.35277777,0,0,-0.35277777,112.9934,62.122883)"
       d="m 0,-122.94643 c 0.918,0.305 1.067,0.896 2.119,0.834 1.899,-0.112 2.901,-3.881 0.565,-4.451 -0.774,-0.189 -1.809,0.015 -2.825,0.418 -3.2,1.264 -6.728,5.269 -11.019,5.702 -3.111,0.313 -5.648,-0.721 -7.064,-1.947 -0.749,0.569 -1.215,1.084 -1.977,1.391 -8.283,3.338 -11.912,-5.401 -18.93,-5.564 -3.154,1.558 0.335,6.417 2.825,3.617 -2.16,4.468 -7.436,0.617 -7.346,-3.199 0.122,-5.179 6.409,-7.094 11.725,-7.094 6.176,0 10.637,2.591 13.844,4.867 4.379,-4.421 16.783,-6.923 22.886,-2.503 1.417,1.026 2.543,2.975 2.543,4.868 0,4.091 -5.642,7.368 -7.346,3.061"
       style="display:inline;fill:#000000;fill-opacity:1;fill-rule:evenodd;stroke:none"
       id="path7343"
       inkscape:connector-curvature="0" />
    <g
       id="g7261"
       transform="matrix(0.35277777,0,0,-0.35277777,83.616046,108.87268)"
       style="display:inline;fill:#000000">
      <path
         d="m 0,0 -2.98,-3.052 0.67,-0.654 c 0.451,-0.44 0.896,-0.473 1.525,0.171 l 1.32,1.352 c 0.629,0.644 0.586,1.089 0.135,1.529 z M 1.864,-3.656 0.72,-4.828 C -0.688,-6.27 -2.151,-6.377 -3.567,-4.994 l -0.67,0.654 -3.307,-3.387 -1.416,1.383 8.801,9.015 2.086,-2.037 c 1.417,-1.383 1.345,-2.847 -0.063,-4.29"
         style="fill:#000000;fill-opacity:1;fill-rule:nonzero;stroke:none"
         id="path7263"
         inkscape:connector-curvature="0" />
    </g>
    <g
       id="g7265"
       transform="matrix(0.35277777,0,0,-0.35277777,85.644696,110.72201)"
       style="display:inline;fill:#000000">
      <path
         d="m 0,0 -2.46,-2.989 0.597,-0.492 c 0.57,-0.469 1.124,-0.505 1.764,0.273 l 0.79,0.959 c 0.572,0.696 0.588,1.196 0.045,1.642 z m -5.199,-9.714 c 0.123,0.319 0.193,0.518 0.845,1.31 l 1.259,1.529 c 0.744,0.904 0.713,1.489 0.018,2.061 l -0.528,0.435 -3.262,-3.962 -1.529,1.259 8.011,9.731 2.308,-1.9 C 3.507,-0.556 3.582,-1.853 2.346,-3.354 L 1.717,-4.119 C 0.893,-5.12 0.035,-5.51 -0.909,-5.269 -0.408,-6.218 -0.764,-7.161 -1.6,-8.175 l -1.236,-1.502 c -0.389,-0.472 -0.661,-0.831 -0.806,-1.319 z"
         style="fill:#000000;fill-opacity:1;fill-rule:nonzero;stroke:none"
         id="path7267"
         inkscape:connector-curvature="0" />
    </g>
    <g
       id="g7269"
       transform="matrix(0.35277777,0,0,-0.35277777,86.279802,114.72812)"
       style="display:inline;fill:#000000">
      <path
         d="m 0,0 c -0.511,-0.741 -0.379,-1.248 0.139,-1.605 0.519,-0.358 1.039,-0.301 1.55,0.439 L 5.553,4.435 C 6.064,5.176 5.933,5.682 5.415,6.04 4.896,6.398 4.375,6.341 3.864,5.601 Z m 2.163,6.621 c 1.145,1.66 2.673,2.005 4.274,0.9 1.6,-1.104 1.82,-2.655 0.675,-4.314 L 3.39,-2.187 c -1.145,-1.659 -2.673,-2.004 -4.273,-0.9 -1.6,1.104 -1.82,2.656 -0.675,4.315 z"
         style="fill:#000000;fill-opacity:1;fill-rule:nonzero;stroke:none"
         id="path7271"
         inkscape:connector-curvature="0" />
    </g>
    <g
       id="g7273"
       transform="matrix(0.35277777,0,0,-0.35277777,89.63306,115.1584)"
       style="display:inline;fill:#000000">
      <path
         d="M 0,0 2.214,-1.276 1.316,-2.835 -0.898,-1.559 -3.496,-6.066 -5.211,-5.078 1.08,5.839 5.618,3.223 4.719,1.664 1.896,3.291 Z"
         style="fill:#000000;fill-opacity:1;fill-rule:nonzero;stroke:none"
         id="path7275"
         inkscape:connector-curvature="0" />
    </g>
    <g
       id="g7277"
       transform="matrix(0.35277777,0,0,-0.35277777,91.991942,116.29822)"
       style="display:inline;fill:#000000">
      <path
         d="M 0,0 2.454,-1.168 1.68,-2.793 -0.774,-1.625 -2.36,-4.957 0.728,-6.426 -0.045,-8.051 -4.921,-5.73 0.495,5.645 5.37,3.324 4.596,1.699 1.508,3.169 Z"
         style="fill:#000000;fill-opacity:1;fill-rule:nonzero;stroke:none"
         id="path7279"
         inkscape:connector-curvature="0" />
    </g>
    <g
       id="g7281"
       transform="matrix(0.35277777,0,0,-0.35277777,95.431173,115.6845)"
       style="display:inline;fill:#000000">
      <path
         d="m 0,0 c 1.801,-0.685 2.317,-2.113 1.601,-3.998 l -0.141,-0.37 -1.75,0.664 0.186,0.489 c 0.319,0.841 0.104,1.289 -0.485,1.512 -0.589,0.224 -1.047,0.033 -1.367,-0.809 -0.92,-2.424 2.525,-4.253 1.247,-7.619 -0.716,-1.885 -2.068,-2.604 -3.886,-1.913 -1.817,0.69 -2.351,2.125 -1.634,4.01 l 0.274,0.724 1.751,-0.665 -0.32,-0.841 c -0.32,-0.842 -0.064,-1.286 0.524,-1.509 0.59,-0.224 1.075,-0.062 1.395,0.78 0.92,2.423 -2.525,4.252 -1.247,7.618 C -3.136,-0.042 -1.801,0.684 0,0"
         style="fill:#000000;fill-opacity:1;fill-rule:nonzero;stroke:none"
         id="path7283"
         inkscape:connector-curvature="0" />
    </g>
    <g
       id="g7285"
       transform="matrix(0.35277777,0,0,-0.35277777,97.943162,116.52009)"
       style="display:inline;fill:#000000">
      <path
         d="m 0,0 c 1.851,-0.534 2.483,-1.916 1.925,-3.854 l -0.11,-0.38 -1.799,0.519 0.144,0.501 c 0.25,0.865 -0.002,1.294 -0.607,1.469 -0.606,0.174 -1.047,-0.055 -1.296,-0.92 -0.719,-2.492 2.867,-4.031 1.869,-7.492 -0.559,-1.938 -1.847,-2.766 -3.716,-2.227 -1.869,0.539 -2.518,1.926 -1.96,3.863 l 0.215,0.745 1.799,-0.519 -0.249,-0.866 c -0.25,-0.865 0.041,-1.286 0.647,-1.461 0.606,-0.174 1.076,0.027 1.326,0.893 0.718,2.491 -2.868,4.031 -1.87,7.492 C -3.123,-0.299 -1.852,0.534 0,0"
         style="fill:#000000;fill-opacity:1;fill-rule:nonzero;stroke:none"
         id="path7287"
         inkscape:connector-curvature="0" />
    </g>
    <g
       id="g7289"
       transform="matrix(0.35277777,0,0,-0.35277777,99.64348,117.01447)"
       style="display:inline;fill:#000000">
      <path
         d="m 0,0 1.935,-0.421 -2.681,-12.316 -1.935,0.422 z"
         style="fill:#000000;fill-opacity:1;fill-rule:nonzero;stroke:none"
         id="path7291"
         inkscape:connector-curvature="0" />
    </g>
    <g
       id="g7293"
       transform="matrix(0.35277777,0,0,-0.35277777,101.28559,120.81717)"
       style="display:inline;fill:#000000">
      <path
         d="M 0,0 C -0.131,-0.891 0.21,-1.287 0.833,-1.378 1.457,-1.47 1.898,-1.19 2.03,-0.299 L 3.022,6.432 C 3.153,7.322 2.811,7.718 2.188,7.81 1.565,7.902 1.123,7.621 0.992,6.731 Z M -0.985,6.895 C -0.691,8.889 0.527,9.874 2.45,9.591 4.374,9.307 5.256,8.013 4.962,6.018 L 4.007,-0.463 C 3.713,-2.458 2.495,-3.443 0.571,-3.159 -1.352,-2.875 -2.234,-1.581 -1.94,0.413 Z"
         style="fill:#000000;fill-opacity:1;fill-rule:nonzero;stroke:none"
         id="path7295"
         inkscape:connector-curvature="0" />
    </g>
    <g
       id="g7297"
       transform="matrix(0.35277777,0,0,-0.35277777,104.43646,118.97196)"
       style="display:inline;fill:#000000">
      <path
         d="M 0,0 -0.542,-9.113 -2.321,-9.008 -1.573,3.575 0.907,3.427 2.491,-4.225 2.938,3.307 4.7,3.202 3.952,-9.38 1.921,-9.26 Z"
         style="fill:#000000;fill-opacity:1;fill-rule:nonzero;stroke:none"
         id="path7299"
         inkscape:connector-curvature="0" />
    </g>
    <g
       id="g7301"
       transform="matrix(0.35277777,0,0,-0.35277777,107.58857,120.86747)"
       style="display:inline;fill:#000000">
      <path
         d="M 0,0 1.907,0.054 0.775,6.396 Z M 4.627,-3.867 2.63,-3.923 2.225,-1.648 -0.204,-1.716 -0.482,-4.01 -2.299,-4.061 -0.636,8.588 2.26,8.669 Z"
         style="fill:#000000;fill-opacity:1;fill-rule:nonzero;stroke:none"
         id="path7303"
         inkscape:connector-curvature="0" />
    </g>
    <g
       id="g7305"
       transform="matrix(0.35277777,0,0,-0.35277777,109.6961,117.73001)"
       style="display:inline;fill:#000000">
      <path
         d="m 0,0 1.969,0.215 1.172,-10.739 3.239,0.353 0.196,-1.79 -5.209,-0.568 z"
         style="fill:#000000;fill-opacity:1;fill-rule:nonzero;stroke:none"
         id="path7307"
         inkscape:connector-curvature="0" />
    </g>
    <g
       id="g7309"
       transform="matrix(0.35277777,0,0,-0.35277777,114.42674,116.91851)"
       style="display:inline;fill:#000000">
      <path
         d="M 0,0 C 1.874,0.442 3.102,-0.451 3.565,-2.413 L 3.656,-2.798 1.834,-3.229 1.715,-2.721 c -0.207,0.876 -0.636,1.126 -1.249,0.982 -0.613,-0.145 -0.885,-0.561 -0.678,-1.436 0.595,-2.523 4.473,-2.107 5.3,-5.61 0.463,-1.962 -0.253,-3.315 -2.145,-3.761 -1.892,-0.447 -3.137,0.442 -3.601,2.404 l -0.177,0.754 1.821,0.43 0.207,-0.876 c 0.207,-0.876 0.667,-1.1 1.28,-0.956 0.613,0.145 0.924,0.551 0.717,1.427 -0.595,2.523 -4.473,2.107 -5.3,5.61 C -2.573,-1.791 -1.875,-0.442 0,0"
         style="fill:#000000;fill-opacity:1;fill-rule:nonzero;stroke:none"
         id="path7311"
         inkscape:connector-curvature="0" />
    </g>
    <g
       id="g7313"
       transform="matrix(0.35277777,0,0,-0.35277777,117.33769,118.11154)"
       style="display:inline;fill:#000000">
      <path
         d="M 0,0 2.585,0.836 3.139,-0.875 0.554,-1.712 1.689,-5.222 4.942,-4.169 5.496,-5.881 0.36,-7.543 -3.517,4.441 1.619,6.103 2.173,4.391 -1.08,3.338 Z"
         style="fill:#000000;fill-opacity:1;fill-rule:nonzero;stroke:none"
         id="path7315"
         inkscape:connector-curvature="0" />
    </g>
    <g
       id="g7317"
       transform="matrix(0.35277777,0,0,-0.35277777,119.4485,116.03226)"
       style="display:inline;fill:#000000">
      <path
         d="M 0,0 1.496,-3.569 2.21,-3.27 c 0.681,0.285 0.971,0.758 0.581,1.688 l -0.48,1.145 C 1.963,0.394 1.527,0.64 0.88,0.369 Z M 6.167,-9.126 C 5.942,-8.869 5.799,-8.714 5.403,-7.768 L 4.637,-5.941 C 4.185,-4.862 3.653,-4.617 2.823,-4.965 L 2.192,-5.229 4.175,-9.961 2.349,-10.726 -2.522,0.895 0.234,2.05 C 2.126,2.843 3.309,2.304 4.061,0.511 L 4.443,-0.402 C 4.944,-1.597 4.889,-2.538 4.236,-3.26 5.309,-3.259 5.977,-4.014 6.484,-5.226 l 0.752,-1.793 c 0.237,-0.564 0.427,-0.972 0.79,-1.328 z"
         style="fill:#000000;fill-opacity:1;fill-rule:nonzero;stroke:none"
         id="path7319"
         inkscape:connector-curvature="0" />
    </g>
    <g
       id="g7321"
       transform="matrix(0.35277777,0,0,-0.35277777,123.73316,117.33105)"
       style="display:inline;fill:#000000">
      <path
         d="m 0,0 -3.436,9.807 1.611,0.845 4.131,-12.065 -2.615,-1.371 -7.575,10.259 1.77,0.927 z"
         style="fill:#000000;fill-opacity:1;fill-rule:nonzero;stroke:none"
         id="path7323"
         inkscape:connector-curvature="0" />
    </g>
    <g
       id="g7325"
       transform="matrix(0.35277777,0,0,-0.35277777,123.64669,113.22246)"
       style="display:inline;fill:#000000">
      <path
         d="M 0,0 1.687,1.038 8.288,-9.697 6.601,-10.734 Z"
         style="fill:#000000;fill-opacity:1;fill-rule:nonzero;stroke:none"
         id="path7327"
         inkscape:connector-curvature="0" />
    </g>
    <g
       id="g7329"
       transform="matrix(0.35277777,0,0,-0.35277777,128.22779,113.50236)"
       style="display:inline;fill:#000000">
      <path
         d="M 0,0 0.971,-1.363 C 2.14,-3.006 1.986,-4.529 0.402,-5.656 -1.181,-6.783 -2.67,-6.429 -3.839,-4.787 l -3.799,5.338 c -1.169,1.642 -1.016,3.165 0.568,4.292 1.583,1.127 3.072,0.773 4.241,-0.869 L -2.119,2.977 -3.644,1.892 -4.427,2.991 C -4.949,3.725 -5.469,3.773 -5.982,3.408 -6.496,3.043 -6.62,2.535 -6.098,1.801 l 3.945,-5.542 c 0.522,-0.734 1.032,-0.768 1.546,-0.403 0.513,0.366 0.648,0.859 0.126,1.592 l -1.044,1.467 z"
         style="fill:#000000;fill-opacity:1;fill-rule:nonzero;stroke:none"
         id="path7331"
         inkscape:connector-curvature="0" />
    </g>
    <g
       id="g7333"
       transform="matrix(0.35277777,0,0,-0.35277777,128.89839,111.78514)"
       style="display:inline;fill:#000000">
      <path
         d="M 0,0 2.078,1.751 3.238,0.375 1.16,-1.376 3.537,-4.198 6.152,-1.995 7.312,-3.371 3.183,-6.85 -4.935,2.785 -0.806,6.264 0.354,4.887 -2.262,2.684 Z"
         style="fill:#000000;fill-opacity:1;fill-rule:nonzero;stroke:none"
         id="path7335"
         inkscape:connector-curvature="0" />
    </g>
    <g
       id="g7337"
       transform="matrix(0.35277777,0,0,-0.35277777,129.77102,108.39724)"
       style="display:inline;fill:#000000">
      <path
         d="M 0,0 C 1.368,1.355 2.882,1.233 4.3,-0.199 L 4.579,-0.48 3.25,-1.797 2.882,-1.427 c -0.633,0.64 -1.13,0.63 -1.577,0.186 C 0.857,-1.684 0.842,-2.18 1.476,-2.82 3.299,-4.661 6.39,-2.283 8.923,-4.841 10.342,-6.273 10.436,-7.8 9.055,-9.168 7.674,-10.536 6.147,-10.427 4.729,-8.995 l -0.544,0.55 1.33,1.317 0.632,-0.639 C 6.781,-8.406 7.29,-8.358 7.738,-7.915 8.185,-7.472 8.239,-6.963 7.605,-6.323 5.782,-4.482 2.69,-6.86 0.158,-4.302 -1.261,-2.87 -1.368,-1.355 0,0"
         style="fill:#000000;fill-opacity:1;fill-rule:nonzero;stroke:none"
         id="path7339"
         inkscape:connector-curvature="0" />
    </g>
    <g
       id="g7345"
       transform="matrix(0.35277777,0,0,-0.35277777,96.063705,63.445766)"
       style="display:inline;fill:#000000">
      <path
         d="M 0,0 C 0.212,0 0.442,0.053 0.692,0.159 0.942,0.265 1.175,0.401 1.39,0.567 1.604,0.733 1.814,0.957 2.02,1.237 2.226,1.518 2.329,1.75 2.329,1.934 2.329,2.191 2.28,2.403 2.184,2.57 2.086,2.736 1.967,2.819 1.826,2.819 1.573,2.819 1.357,2.773 1.178,2.681 0.999,2.589 0.849,2.471 0.728,2.325 0.607,2.179 0.51,2.012 0.437,1.826 0.363,1.64 0.278,1.409 0.181,1.134 0.084,0.859 0.029,0.633 0.018,0.456 0.006,0.278 0,0.126 0,0 m 1.173,-4.186 c -0.547,0 -1.026,0.102 -1.436,0.304 -0.41,0.203 -0.752,0.476 -1.026,0.819 -0.273,0.343 -0.479,0.739 -0.615,1.189 -0.137,0.451 -0.205,0.923 -0.205,1.418 0,0.324 0.061,0.71 0.183,1.159 0.123,0.448 0.249,0.845 0.381,1.193 0.13,0.346 0.295,0.677 0.493,0.993 0.198,0.315 0.43,0.592 0.696,0.832 0.265,0.24 0.562,0.431 0.891,0.573 C 0.864,4.436 1.23,4.506 1.632,4.506 1.96,4.506 2.266,4.454 2.547,4.348 2.829,4.243 3.074,4.095 3.282,3.905 3.49,3.715 3.653,3.485 3.77,3.216 3.888,2.947 3.946,2.645 3.946,2.312 3.946,1.957 3.827,1.558 3.589,1.117 3.352,0.676 3.074,0.298 2.757,-0.017 2.44,-0.333 2.063,-0.613 1.625,-0.859 1.188,-1.106 0.714,-1.298 0.203,-1.435 c 0.088,-0.155 0.175,-0.284 0.26,-0.387 0.085,-0.103 0.172,-0.183 0.261,-0.241 0.088,-0.057 0.18,-0.097 0.277,-0.12 0.097,-0.023 0.202,-0.034 0.313,-0.034 0.352,0 0.723,0.069 1.112,0.206 0.39,0.137 0.769,0.309 1.138,0.516 0.37,0.206 0.718,0.431 1.046,0.674 0.328,0.244 0.607,0.474 0.835,0.692 L 6.579,-1.281 C 6.063,-1.83 5.516,-2.315 4.936,-2.738 4.684,-2.919 4.413,-3.097 4.123,-3.272 3.833,-3.447 3.528,-3.603 3.208,-3.738 2.889,-3.874 2.558,-3.982 2.215,-4.064 1.873,-4.146 1.525,-4.186 1.173,-4.186"
         style="fill:#000000;fill-opacity:1;fill-rule:nonzero;stroke:none"
         id="path7347"
         inkscape:connector-curvature="0" />
    </g>
    <g
       id="g7349"
       transform="matrix(0.35277777,0,0,-0.35277777,98.072879,64.153367)"
       style="display:inline;fill:#000000">
      <path
         d="m 0,0 c 0.07,0 0.148,-0.044 0.233,-0.133 0.085,-0.089 0.183,-0.187 0.294,-0.294 0.112,-0.106 0.241,-0.204 0.387,-0.293 0.147,-0.089 0.314,-0.133 0.501,-0.133 0.229,0 0.418,0.039 0.567,0.116 0.149,0.076 0.268,0.178 0.356,0.306 0.088,0.127 0.149,0.275 0.184,0.444 0.036,0.169 0.053,0.345 0.053,0.529 0,0.16 -0.01,0.322 -0.031,0.488 C 2.524,1.196 2.527,1.402 2.553,1.648 2.58,1.894 2.574,2.083 2.536,2.216 2.498,2.35 2.464,2.464 2.435,2.559 Z m -1.097,1.137 c 0.328,0.284 0.595,0.521 0.8,0.711 0.205,0.189 0.41,0.41 0.615,0.661 0.205,0.252 0.368,0.458 0.488,0.618 0.12,0.16 0.262,0.35 0.426,0.569 0.164,0.219 0.364,0.487 0.598,0.804 0.234,0.316 0.539,0.712 0.914,1.186 0.076,0.106 0.161,0.21 0.255,0.311 0.093,0.1 0.198,0.19 0.312,0.271 0.114,0.08 0.24,0.145 0.378,0.195 0.137,0.05 0.291,0.076 0.461,0.076 0.282,0 0.498,-0.032 0.651,-0.094 C 4.953,6.383 5.064,6.308 5.135,6.219 5.205,6.13 5.246,6.037 5.258,5.939 5.27,5.841 5.275,5.757 5.275,5.686 5.275,5.543 5.22,5.387 5.108,5.215 4.997,5.043 4.874,4.877 4.739,4.717 4.604,4.557 4.477,4.411 4.357,4.277 4.237,4.144 4.168,4.045 4.15,3.98 4.15,3.796 4.164,3.629 4.19,3.478 4.217,3.327 4.253,3.179 4.298,3.034 4.343,2.889 4.389,2.735 4.437,2.572 4.485,2.409 4.531,2.221 4.575,2.008 4.619,1.794 4.625,1.501 4.592,1.128 4.56,0.755 4.544,0.379 4.544,0 4.755,0.142 4.982,0.271 5.225,0.386 5.468,0.502 5.722,0.622 5.985,0.746 6.249,0.871 6.52,1.008 6.798,1.159 7.077,1.31 7.356,1.492 7.638,1.706 L 7.646,-0.285 C 7.283,-0.556 6.863,-0.81 6.385,-1.047 5.908,-1.285 5.406,-1.494 4.879,-1.674 4.352,-1.855 3.821,-1.998 3.285,-2.103 2.749,-2.207 2.24,-2.259 1.76,-2.259 c -0.346,0 -0.668,0.03 -0.967,0.092 -0.299,0.062 -0.562,0.159 -0.787,0.29 -0.225,0.132 -0.408,0.304 -0.549,0.517 -0.141,0.213 -0.226,0.471 -0.255,0.774 -0.082,-0.018 -0.162,-0.03 -0.242,-0.036 -0.079,-0.006 -0.157,-0.009 -0.232,-0.009 -0.094,0 -0.182,0.003 -0.264,0.009 -0.083,0.006 -0.153,0.028 -0.211,0.066 -0.059,0.039 -0.106,0.101 -0.141,0.187 C -1.923,-0.283 -1.94,-0.16 -1.94,0 c 0,0.142 0.035,0.274 0.105,0.395 0.07,0.122 0.152,0.23 0.246,0.324 0.093,0.095 0.188,0.178 0.281,0.249 0.094,0.071 0.164,0.128 0.211,0.169"
         style="fill:#000000;fill-opacity:1;fill-rule:nonzero;stroke:none"
         id="path7351"
         inkscape:connector-curvature="0" />
    </g>
    <g
       id="g7353"
       transform="matrix(0.35277777,0,0,-0.35277777,102.03232,60.301598)"
       style="display:inline;fill:#000000">
      <path
         d="m 0,0 c 0,0.064 -0.004,0.136 -0.013,0.214 -0.009,0.079 -0.028,0.154 -0.058,0.223 -0.029,0.07 -0.075,0.129 -0.137,0.176 -0.061,0.046 -0.148,0.07 -0.26,0.07 -0.153,0 -0.307,-0.134 -0.463,-0.402 -0.156,-0.267 -0.306,-0.609 -0.45,-1.025 -0.144,-0.416 -0.28,-0.874 -0.406,-1.374 -0.126,-0.501 -0.242,-0.986 -0.348,-1.457 0.088,-0.009 0.176,-0.017 0.264,-0.023 0.088,-0.007 0.18,-0.014 0.274,-0.023 0.176,0.295 0.36,0.615 0.552,0.959 0.191,0.345 0.362,0.683 0.516,1.016 0.153,0.333 0.279,0.645 0.379,0.934 C -0.05,-0.423 0,-0.186 0,0 m 2.813,-11.13 c -0.564,-0.328 -1.065,-0.615 -1.505,-0.861 -0.441,-0.246 -0.832,-0.451 -1.176,-0.615 -0.343,-0.165 -0.648,-0.288 -0.915,-0.37 -0.267,-0.082 -0.509,-0.123 -0.726,-0.123 -0.443,0 -0.833,0.135 -1.171,0.405 -0.339,0.269 -0.621,0.657 -0.848,1.164 -0.227,0.507 -0.398,1.121 -0.512,1.842 -0.113,0.72 -0.17,1.532 -0.17,2.434 0,0.352 0.015,0.727 0.043,1.125 0.029,0.399 0.07,0.794 0.123,1.187 -0.178,0.025 -0.315,0.05 -0.412,0.073 -0.097,0.023 -0.201,0.046 -0.31,0.069 -0.109,0.022 -0.247,0.047 -0.416,0.073 -0.168,0.026 -0.411,0.059 -0.729,0.098 -0.142,0.019 -0.251,0.057 -0.328,0.112 -0.076,0.056 -0.132,0.121 -0.168,0.196 -0.035,0.075 -0.056,0.153 -0.062,0.235 -0.006,0.081 -0.009,0.151 -0.009,0.21 0,0.092 0.058,0.163 0.173,0.211 0.115,0.049 0.262,0.085 0.441,0.11 0.18,0.024 0.377,0.038 0.593,0.041 0.214,0.003 0.42,10e-4 0.618,-0.005 0.197,-0.005 0.374,-0.01 0.53,-0.013 0.156,-0.003 0.264,0.002 0.322,0.013 0.158,0.789 0.359,1.553 0.601,2.292 0.243,0.739 0.515,1.396 0.816,1.972 0.301,0.575 0.631,1.037 0.988,1.385 0.356,0.348 0.73,0.521 1.123,0.521 0.252,0 0.481,-0.07 0.69,-0.211 C 0.625,2.3 0.802,2.113 0.949,1.878 1.096,1.645 1.208,1.371 1.288,1.058 1.367,0.745 1.406,0.418 1.406,0.079 1.406,-0.202 1.365,-0.499 1.283,-0.811 1.201,-1.124 1.089,-1.442 0.949,-1.766 0.808,-2.089 0.643,-2.418 0.452,-2.75 0.262,-3.083 0.061,-3.412 -0.15,-3.739 c 0.053,0.02 0.141,0.023 0.264,0.011 0.123,-0.012 0.265,-0.02 0.427,-0.024 0.161,-0.005 0.335,-0.01 0.522,-0.015 0.188,-0.004 0.37,-0.009 0.545,-0.015 0.176,-0.006 0.34,-0.012 0.493,-0.018 0.152,-0.006 0.278,-0.012 0.378,-0.017 0.117,-0.007 0.202,-0.072 0.254,-0.196 0.053,-0.124 0.08,-0.28 0.08,-0.469 0,-0.22 -0.059,-0.398 -0.177,-0.536 C 2.519,-5.155 2.39,-5.224 2.25,-5.224 H -1.129 C -1.3,-5.458 -1.472,-5.688 -1.646,-5.914 -1.819,-6.139 -1.98,-6.343 -2.127,-6.524 -2.15,-6.888 -2.171,-7.245 -2.188,-7.597 -2.194,-7.749 -2.2,-7.906 -2.206,-8.067 c -0.006,-0.161 -0.012,-0.321 -0.018,-0.479 -0.005,-0.158 -0.01,-0.31 -0.013,-0.457 -0.003,-0.146 -0.004,-0.281 -0.004,-0.404 0,-0.317 0.029,-0.583 0.088,-0.8 0.059,-0.217 0.144,-0.394 0.256,-0.532 0.112,-0.137 0.249,-0.237 0.41,-0.299 0.162,-0.061 0.343,-0.092 0.543,-0.092 0.123,0 0.277,0.029 0.462,0.088 0.185,0.059 0.387,0.139 0.607,0.242 0.22,0.102 0.451,0.224 0.695,0.364 0.243,0.141 0.484,0.295 0.721,0.462 0.238,0.167 0.465,0.343 0.682,0.527 0.217,0.185 0.413,0.374 0.59,0.567 z"
         style="fill:#000000;fill-opacity:1;fill-rule:nonzero;stroke:none"
         id="path7355"
         inkscape:connector-curvature="0" />
    </g>
    <g
       id="g7357"
       transform="matrix(0.35277777,0,0,-0.35277777,104.47248,64.382285)"
       style="display:inline;fill:#000000">
      <path
         d="m 0,0 c 0,-0.021 -0.003,-0.075 -0.009,-0.16 -0.006,-0.086 -0.025,-0.185 -0.057,-0.297 -0.032,-0.112 -0.082,-0.231 -0.149,-0.356 -0.068,-0.126 -0.163,-0.243 -0.286,-0.35 -0.123,-0.107 -0.278,-0.194 -0.466,-0.264 -0.187,-0.07 -0.416,-0.104 -0.685,-0.104 -0.217,0 -0.413,0.025 -0.589,0.076 -0.176,0.051 -0.327,0.128 -0.453,0.232 -0.126,0.104 -0.224,0.238 -0.294,0.401 -0.071,0.163 -0.106,0.36 -0.106,0.59 0,0.192 0.031,0.38 0.093,0.565 0.061,0.184 0.156,0.349 0.285,0.493 0.129,0.144 0.296,0.259 0.501,0.344 0.205,0.086 0.448,0.129 0.73,0.129 0.486,0 0.855,-0.112 1.107,-0.337 C -0.126,0.738 0,0.417 0,0"
         style="fill:#000000;fill-opacity:1;fill-rule:nonzero;stroke:none"
         id="path7359"
         inkscape:connector-curvature="0" />
    </g>
    <g
       id="g7361"
       transform="matrix(0.35277777,0,0,-0.35277777,107.74188,62.286642)"
       style="display:inline;fill:#000000">
      <path
         d="M 0,0 C -0.088,-0.094 -0.183,-0.189 -0.285,-0.286 -0.388,-0.383 -0.487,-0.471 -0.583,-0.55 -0.68,-0.629 -0.77,-0.694 -0.851,-0.744 c -0.082,-0.049 -0.144,-0.074 -0.184,-0.074 -0.55,0 -0.971,0.048 -1.264,0.145 -0.292,0.096 -0.438,0.194 -0.438,0.294 0,0.065 0.061,0.117 0.184,0.158 0.123,0.041 0.314,0.062 0.572,0.062 0.064,0 0.161,0.048 0.29,0.145 0.129,0.097 0.282,0.218 0.461,0.365 0.179,0.146 0.376,0.304 0.593,0.474 0.217,0.17 0.44,0.328 0.668,0.475 C 0.26,1.446 0.491,1.568 0.726,1.665 0.96,1.761 1.188,1.81 1.411,1.81 1.728,1.81 1.938,1.788 2.044,1.744 2.149,1.7 2.202,1.637 2.202,1.555 2.202,1.467 2.189,1.359 2.165,1.23 2.14,1.101 2.127,0.949 2.127,0.774 L 2.071,0.458 C 2.04,0.247 1.998,-0.032 1.947,-0.378 1.895,-0.725 1.835,-1.122 1.769,-1.57 1.702,-2.018 1.635,-2.469 1.567,-2.922 1.5,-3.376 1.434,-3.82 1.369,-4.253 1.304,-4.686 1.249,-5.061 1.202,-5.377 1.187,-5.44 1.166,-5.53 1.138,-5.646 1.111,-5.762 1.08,-5.892 1.046,-6.035 1.012,-6.178 0.961,-6.336 0.894,-6.509 0.827,-6.682 0.747,-6.84 0.653,-6.983 0.559,-7.127 0.449,-7.245 0.323,-7.335 0.198,-7.426 0.056,-7.472 -0.102,-7.472 c -0.193,0 -0.375,0.012 -0.544,0.035 -0.17,0.024 -0.316,0.061 -0.439,0.11 -0.123,0.05 -0.22,0.115 -0.29,0.194 -0.07,0.079 -0.105,0.174 -0.105,0.285 0,0.047 0.002,0.094 0.008,0.141 0.006,0.047 0.03,0.105 0.071,0.176 0.093,0.34 0.183,0.694 0.268,1.063 0.085,0.369 0.17,0.738 0.255,1.107 0.085,0.369 0.169,0.732 0.251,1.09 0.083,0.357 0.155,0.697 0.219,1.02 C -0.258,-1.495 -0.122,-0.745 0,0"
         style="fill:#000000;fill-opacity:1;fill-rule:nonzero;stroke:none"
         id="path7363"
         inkscape:connector-curvature="0" />
    </g>
    <g
       id="g7365"
       transform="matrix(0.35277777,0,0,-0.35277777,110.19358,63.340144)"
       style="display:inline;fill:#000000">
      <path
         d="M 0,0 C 0.111,0.127 0.189,0.19 0.236,0.19 0.283,0.19 0.309,0.174 0.315,0.142 0.321,0.11 0.324,0.064 0.324,0.006 c 0,-0.188 -0.043,-0.385 -0.128,-0.593 -0.085,-0.208 -0.202,-0.4 -0.351,-0.576 -0.15,-0.176 -0.328,-0.321 -0.536,-0.435 -0.208,-0.114 -0.435,-0.172 -0.682,-0.172 -0.386,0 -0.722,0.085 -1.006,0.254 -0.284,0.17 -0.517,0.387 -0.699,0.653 -0.181,0.265 -0.316,0.566 -0.404,0.901 -0.088,0.336 -0.132,0.67 -0.132,1.003 0,0.306 0.038,0.618 0.114,0.936 0.077,0.318 0.188,0.627 0.335,0.927 0.146,0.301 0.328,0.583 0.545,0.848 0.217,0.265 0.469,0.497 0.757,0.694 0.287,0.197 0.607,0.353 0.959,0.468 0.351,0.114 0.736,0.172 1.152,0.172 0.361,0 0.738,-0.068 1.131,-0.203 C 1.772,4.747 2.132,4.534 2.458,4.242 2.783,3.951 3.05,3.579 3.261,3.125 3.471,2.671 3.576,2.124 3.576,1.482 3.576,0.54 3.439,-0.312 3.165,-1.072 2.891,-1.833 2.517,-2.514 2.043,-3.113 1.569,-3.713 1.015,-4.237 0.382,-4.685 -0.251,-5.132 -0.927,-5.514 -1.645,-5.831 -1.763,-5.883 -1.875,-5.927 -1.981,-5.962 -2.087,-5.997 -2.19,-6.015 -2.29,-6.015 c -0.265,0 -0.471,0.057 -0.618,0.172 -0.147,0.114 -0.22,0.253 -0.22,0.417 0,0.135 0.041,0.274 0.123,0.418 0.083,0.143 0.218,0.277 0.406,0.4 0.589,0.298 1.124,0.63 1.606,0.996 0.482,0.365 0.895,0.784 1.241,1.255 0.344,0.47 0.61,0.998 0.797,1.583 0.187,0.585 0.281,1.243 0.281,1.974 0,0.288 -0.019,0.565 -0.057,0.83 C 1.231,2.294 1.165,2.529 1.072,2.732 0.978,2.935 0.854,3.097 0.699,3.217 0.544,3.338 0.35,3.398 0.117,3.398 -0.123,3.398 -0.342,3.323 -0.541,3.173 -0.739,3.023 -0.91,2.832 -1.053,2.599 -1.196,2.367 -1.307,2.106 -1.386,1.818 -1.465,1.529 -1.504,1.247 -1.504,0.97 c 0,-0.212 0.026,-0.4 0.078,-0.565 0.053,-0.165 0.123,-0.304 0.21,-0.42 0.088,-0.114 0.187,-0.201 0.298,-0.26 0.11,-0.059 0.224,-0.088 0.341,-0.088 0.099,0 0.2,0.03 0.302,0.091 C -0.173,-0.212 -0.082,-0.121 0,0"
         style="fill:#000000;fill-opacity:1;fill-rule:nonzero;stroke:none"
         id="path7367"
         inkscape:connector-curvature="0" />
    </g>
    <g
       id="g7369"
       transform="matrix(0.35277777,0,0,-0.35277777,114.00679,65.040319)"
       style="display:inline;fill:#000000">
      <path
         d="m 0,0 c -0.252,0 -0.507,-0.01 -0.766,-0.031 -0.258,-0.02 -0.506,-0.031 -0.743,-0.031 -0.185,0 -0.347,0.014 -0.486,0.04 -0.139,0.026 -0.257,0.078 -0.356,0.154 -0.098,0.076 -0.171,0.18 -0.221,0.312 -0.049,0.132 -0.074,0.303 -0.074,0.514 0,0.234 0.029,0.504 0.087,0.809 0.058,0.304 0.13,0.627 0.217,0.966 -0.363,0 -0.696,-0.036 -1,-0.109 C -3.646,2.55 -3.933,2.468 -4.203,2.377 -4.472,2.287 -4.728,2.205 -4.971,2.131 -5.213,2.058 -5.452,2.021 -5.687,2.021 c -0.105,0 -0.181,0.039 -0.228,0.115 -0.047,0.076 -0.07,0.17 -0.07,0.281 0,0.152 0.047,0.331 0.14,0.536 0.094,0.205 0.217,0.422 0.369,0.651 0.123,0.262 0.236,0.547 0.339,0.855 0.102,0.309 0.192,0.596 0.267,0.861 0.076,0.265 0.151,0.528 0.225,0.788 0.075,0.259 0.155,0.582 0.241,0.97 0.087,0.386 0.167,0.75 0.243,1.091 0.076,0.341 0.161,0.724 0.256,1.148 0.035,0.097 0.107,0.177 0.215,0.243 0.108,0.065 0.238,0.12 0.391,0.164 0.152,0.044 0.317,0.076 0.495,0.096 0.179,0.021 0.356,0.031 0.532,0.031 0.141,0 0.276,-0.007 0.404,-0.022 0.127,-0.015 0.238,-0.034 0.332,-0.057 0.094,-0.023 0.169,-0.054 0.225,-0.092 0.057,-0.038 0.085,-0.078 0.085,-0.119 -0.299,-1.33 -0.449,-1.995 -0.449,-1.995 0,0 -0.087,-0.274 -0.262,-0.823 C -2.111,6.193 -2.296,5.686 -2.492,5.221 -2.689,4.757 -2.896,4.282 -3.112,3.797 -2.89,3.785 -2.702,3.776 -2.549,3.771 h 0.404 0.098 c 0.115,0.38 0.231,0.751 0.347,1.111 0.116,0.361 0.222,0.699 0.321,1.015 0.034,0.153 0.1,0.283 0.197,0.392 0.098,0.108 0.208,0.196 0.332,0.263 0.124,0.068 0.252,0.117 0.385,0.15 0.132,0.032 0.252,0.048 0.358,0.048 C 0.17,6.75 0.357,6.705 0.455,6.615 0.552,6.526 0.601,6.403 0.601,6.248 0.601,6.152 0.582,6.023 0.543,5.862 0.505,5.7 0.453,5.518 0.388,5.315 0.324,5.111 0.25,4.89 0.167,4.651 0.085,4.412 0.002,4.167 -0.081,3.916 0.214,3.949 0.479,3.981 0.716,4.013 0.951,4.045 1.152,4.061 1.317,4.061 1.394,4.061 1.448,4.037 1.48,3.991 1.513,3.945 1.529,3.884 1.529,3.808 1.529,3.56 1.507,3.36 1.462,3.209 1.418,3.059 1.366,2.942 1.307,2.858 1.248,2.774 1.188,2.719 1.129,2.693 1.07,2.667 1.025,2.654 0.996,2.654 0.77,2.654 0.535,2.659 0.289,2.667 0.042,2.676 -0.214,2.687 -0.481,2.698 -0.529,2.511 -0.57,2.328 -0.605,2.149 -0.641,1.97 -0.665,1.802 -0.677,1.644 V 1.477 c 0,-0.106 0.043,-0.226 0.128,-0.361 0.085,-0.135 0.177,-0.268 0.277,-0.4 C -0.173,0.584 -0.081,0.463 0.004,0.352 0.089,0.24 0.132,0.152 0.132,0.088 0.132,0.059 0.125,0.037 0.11,0.022 0.095,0.007 0.059,0 0,0"
         style="fill:#000000;fill-opacity:1;fill-rule:nonzero;stroke:none"
         id="path7371"
         inkscape:connector-curvature="0" />
    </g>
    <g
       id="g7373"
       transform="matrix(0.35277777,0,0,-0.35277777,115.98478,62.296979)"
       style="display:inline;fill:#000000">
      <path
         d="m 0,0 c -0.245,0.024 -0.451,0.053 -0.617,0.085 -0.167,0.033 -0.311,0.063 -0.434,0.09 -0.123,0.027 -0.231,0.049 -0.326,0.066 -0.096,0.016 -0.196,0.025 -0.301,0.025 -0.035,0 -0.073,-0.002 -0.114,-0.004 -0.041,-0.003 -0.085,-0.007 -0.132,-0.012 0.047,-0.25 0.07,-0.387 0.07,-0.414 0.035,-0.162 0.062,-0.306 0.079,-0.43 0.024,-0.221 0.056,-0.579 0.097,-1.074 0.351,0.035 0.679,0.053 0.984,0.053 0.575,0 1.063,-0.054 1.465,-0.162 0.401,-0.108 0.735,-0.25 1.002,-0.425 0.266,-0.176 0.475,-0.378 0.624,-0.606 0.15,-0.228 0.262,-0.461 0.337,-0.697 0.075,-0.238 0.121,-0.472 0.14,-0.703 0.018,-0.231 0.027,-0.439 0.027,-0.624 0,-0.334 -0.09,-0.665 -0.27,-0.993 C 2.452,-6.153 2.202,-6.448 1.881,-6.708 1.561,-6.969 1.179,-7.18 0.735,-7.341 0.292,-7.502 -0.193,-7.583 -0.72,-7.583 c -0.545,0 -1.012,0.059 -1.402,0.176 -0.39,0.117 -0.709,0.284 -0.958,0.501 -0.249,0.217 -0.431,0.476 -0.545,0.778 -0.114,0.301 -0.171,0.634 -0.171,0.997 0,0.223 0.033,0.409 0.101,0.558 0.067,0.15 0.156,0.27 0.268,0.361 0.111,0.09 0.24,0.155 0.386,0.193 0.147,0.038 0.299,0.057 0.458,0.057 0.134,0 0.287,-0.016 0.457,-0.048 0.169,-0.032 0.328,-0.075 0.474,-0.128 0.147,-0.052 0.27,-0.111 0.369,-0.175 0.1,-0.065 0.15,-0.126 0.15,-0.185 0,-0.047 -0.05,-0.085 -0.15,-0.114 -0.099,-0.03 -0.211,-0.069 -0.334,-0.119 -0.123,-0.05 -0.234,-0.114 -0.334,-0.193 -0.099,-0.079 -0.149,-0.189 -0.149,-0.33 0,-0.199 0.02,-0.369 0.061,-0.51 0.041,-0.14 0.099,-0.255 0.172,-0.342 0.073,-0.088 0.158,-0.153 0.255,-0.194 0.096,-0.041 0.197,-0.061 0.303,-0.061 0.193,0 0.39,0.041 0.589,0.123 0.199,0.082 0.379,0.195 0.54,0.338 0.161,0.144 0.293,0.315 0.396,0.514 0.102,0.199 0.154,0.416 0.154,0.651 0,0.287 -0.041,0.528 -0.123,0.725 -0.082,0.196 -0.207,0.356 -0.374,0.479 -0.167,0.123 -0.378,0.217 -0.633,0.281 -0.255,0.064 -0.552,0.111 -0.892,0.141 -0.17,0.029 -0.401,0.051 -0.694,0.066 -0.293,0.014 -0.479,0.039 -0.558,0.074 -0.079,0.035 -0.144,0.092 -0.194,0.168 -0.049,0.076 -0.088,0.189 -0.114,0.339 -0.026,0.15 -0.045,0.448 -0.057,0.895 -0.012,0.446 -0.021,0.851 -0.026,1.215 -0.012,0.177 -0.022,0.34 -0.031,0.49 -0.009,0.149 -0.013,0.292 -0.013,0.427 0,0.466 0.032,0.815 0.096,1.048 0.065,0.233 0.139,0.394 0.224,0.485 0.085,0.091 0.172,0.136 0.26,0.136 h 0.747 c -0.345,0 -0.391,-0.021 -0.136,-0.063 0.255,-0.043 0.512,-0.086 0.771,-0.129 0.259,-0.043 0.526,-0.087 0.802,-0.133 0.276,-0.047 0.509,-0.07 0.699,-0.07 0.06,0 0.118,0.015 0.175,0.044 0.057,0.029 0.116,0.049 0.177,0.061 0.27,0.06 0.462,0.111 0.577,0.154 C 1.167,2.14 1.245,2.174 1.287,2.201 1.329,2.229 1.354,2.25 1.364,2.265 1.373,2.28 1.41,2.287 1.477,2.287 1.7,2.287 1.862,2.18 1.962,1.965 2.062,1.751 2.111,1.469 2.111,1.119 V 1.078 C 2.111,1.044 2.095,0.999 2.062,0.942 2.029,0.885 1.972,0.819 1.891,0.744 1.809,0.668 1.69,0.587 1.534,0.5 1.377,0.413 1.176,0.328 0.93,0.243 0.683,0.159 0.373,0.078 0,0"
         style="fill:#000000;fill-opacity:1;fill-rule:nonzero;stroke:none"
         id="path7375"
         inkscape:connector-curvature="0" />
    </g>
    <g
       id="g7141"
       transform="matrix(0.35277777,0,0,-0.35277777,73.517077,90.899954)"
       style="display:inline;fill:#000000">
      <path
         d="M 0,0 V 0.72 C 0,1.959 -0.734,2.58 -2.202,2.58 H -6.3 v -4.44 h 4.098 C -0.734,-1.86 0,-1.241 0,0 m 0,19.44 c 0,3.36 -1.04,6.48 -3.119,9.36 -0.694,0.96 -1.754,2.079 -3.181,3.36 V 7.2 c 1.385,1.2 2.425,2.259 3.119,3.18 C -1.061,13.219 0,16.239 0,19.44 M 4.8,-0.54 C 4.8,-2.421 4.14,-3.921 2.82,-5.04 1.5,-6.161 -0.321,-6.72 -2.64,-6.72 h -8.46 v 9.3 h -4.14 l -2.88,4.62 h 7.02 v 32.88 c 0.559,0 1.92,-0.561 4.08,-1.68 3.2,-1.68 5.76,-3.72 7.68,-6.12 C 3.42,28.8 4.8,24.699 4.8,19.98 4.8,15.3 3.12,11.04 -0.24,7.2 1.5,6.72 2.775,6.03 3.585,5.13 4.395,4.23 4.8,3.02 4.8,1.5 Z"
         style="fill:#000000;fill-opacity:1;fill-rule:nonzero;stroke:none"
         id="path7143"
         inkscape:connector-curvature="0" />
    </g>
    <g
       id="g7145"
       transform="matrix(0.35277777,0,0,-0.35277777,81.602567,88.360059)"
       style="display:inline;fill:#000000">
      <path
         d="m 0,0 v 23.1 c 0,1.52 -0.225,2.58 -0.674,3.18 -0.449,0.6 -1.245,0.9 -2.387,0.9 -1.061,0 -1.817,-0.3 -2.266,-0.9 C -5.776,25.68 -6,24.62 -6,23.1 V 0 Z M 4.8,-13.92 H 0 v 9.3 h -6 v -9.3 h -4.8 v 9.3 h -4.14 L -17.82,0 h 7.02 v 23.1 c 0,2.799 0.71,5.01 2.13,6.63 1.42,1.62 3.369,2.43 5.85,2.43 2.4,0 4.269,-0.81 5.61,-2.43 C 4.13,28.11 4.8,25.899 4.8,23.1 Z"
         style="fill:#000000;fill-opacity:1;fill-rule:nonzero;stroke:none"
         id="path7147"
         inkscape:connector-curvature="0" />
    </g>
    <g
       id="g7149"
       transform="matrix(0.35277777,0,0,-0.35277777,90.344154,84.041954)"
       style="display:inline;fill:#000000">
      <path
         d="m 0,0 c 0,3.48 -1.04,6.639 -3.119,9.48 -0.694,0.919 -1.754,1.999 -3.181,3.24 v -24.96 c 1.386,1.08 2.425,2.059 3.119,2.94 C -1.06,-6.581 0,-3.48 0,0 M 4.8,-26.16 H 0 v 7.02 c 0,0.919 -0.133,1.53 -0.397,1.83 -0.266,0.3 -0.826,0.45 -1.682,0.45 H -6.3 v -9.3 h -4.8 v 9.3 h -4.14 l -2.88,4.62 h 7.02 v 32.88 c 0.6,0 1.959,-0.52 4.08,-1.56 3.2,-1.56 5.76,-3.561 7.68,-6 C 3.42,9.6 4.8,5.419 4.8,0.54 c 0,-4.92 -1.68,-9.18 -5.04,-12.78 1.902,-0.201 3.218,-0.78 3.947,-1.74 0.729,-0.96 1.093,-2.681 1.093,-5.16 z"
         style="fill:#000000;fill-opacity:1;fill-rule:nonzero;stroke:none"
         id="path7151"
         inkscape:connector-curvature="0" />
    </g>
    <g
       id="g7153"
       transform="matrix(0.35277777,0,0,-0.35277777,98.535548,90.899954)"
       style="display:inline;fill:#000000">
      <path
         d="M 0,0 V 0.72 C 0,1.959 -0.734,2.58 -2.202,2.58 H -6.3 v -4.44 h 4.098 C -0.734,-1.86 0,-1.241 0,0 m 0,19.44 c 0,3.36 -1.04,6.48 -3.119,9.36 -0.694,0.96 -1.754,2.079 -3.181,3.36 V 7.2 c 1.385,1.2 2.425,2.259 3.119,3.18 C -1.061,13.219 0,16.239 0,19.44 M 4.8,-0.54 C 4.8,-2.421 4.14,-3.921 2.82,-5.04 1.5,-6.161 -0.321,-6.72 -2.64,-6.72 h -8.46 v 9.3 h -4.14 l -2.88,4.62 h 7.02 v 32.88 c 0.559,0 1.92,-0.561 4.08,-1.68 3.2,-1.68 5.76,-3.72 7.68,-6.12 C 3.42,28.8 4.8,24.699 4.8,19.98 4.8,15.3 3.12,11.04 -0.24,7.2 1.5,6.72 2.775,6.03 3.585,5.13 4.395,4.23 4.8,3.02 4.8,1.5 Z"
         style="fill:#000000;fill-opacity:1;fill-rule:nonzero;stroke:none"
         id="path7155"
         inkscape:connector-curvature="0" />
    </g>
    <g
       id="g7157"
       transform="matrix(0.35277777,0,0,-0.35277777,107.74291,93.270692)"
       style="display:inline;fill:#000000">
      <path
         d="m 0,0 h -7.32 c -4.44,0 -6.66,2.5 -6.66,7.5 v 1.8 h -4.14 L -21,13.92 h 7.02 v 30.9 H 0 V 39.96 H -9.18 V 13.92 H 0 V 9.3 H -9.18 V 6.6 c 0,-1.161 0.604,-1.74 1.812,-1.74 H 0 Z"
         style="fill:#000000;fill-opacity:1;fill-rule:nonzero;stroke:none"
         id="path7159"
         inkscape:connector-curvature="0" />
    </g>
    <g
       id="g7161"
       transform="matrix(0.35277777,0,0,-0.35277777,114.1351,84.041954)"
       style="display:inline;fill:#000000">
      <path
         d="m 0,0 c 0,3.48 -1.04,6.639 -3.119,9.48 -0.694,0.919 -1.755,1.999 -3.181,3.24 v -24.96 c 1.385,1.08 2.425,2.059 3.119,2.94 C -1.061,-6.581 0,-3.48 0,0 M 4.8,-26.16 H 0 v 7.02 c 0,0.919 -0.133,1.53 -0.397,1.83 -0.266,0.3 -0.827,0.45 -1.683,0.45 H -6.3 v -9.3 h -4.8 v 9.3 h -4.14 l -2.88,4.62 h 7.02 v 32.88 c 0.6,0 1.959,-0.52 4.08,-1.56 3.2,-1.56 5.76,-3.561 7.68,-6 C 3.42,9.6 4.8,5.419 4.8,0.54 c 0,-4.92 -1.68,-9.18 -5.04,-12.78 1.902,-0.201 3.218,-0.78 3.947,-1.74 0.728,-0.96 1.093,-2.681 1.093,-5.16 z"
         style="fill:#000000;fill-opacity:1;fill-rule:nonzero;stroke:none"
         id="path7163"
         inkscape:connector-curvature="0" />
    </g>
    <g
       id="g7165"
       transform="matrix(0.35277777,0,0,-0.35277777,120.92935,77.459261)"
       style="display:inline;fill:#000000">
      <path
         d="m 0,0 c -2,-1.92 -3.561,-4.161 -4.68,-6.72 -1.12,-2.56 -1.68,-5.14 -1.68,-7.74 0,-2.48 0.88,-5.8 2.64,-9.96 1.76,-4.161 2.64,-7.3 2.64,-9.42 0,-3.88 -0.96,-7.54 -2.88,-10.98 h -6.18 c 2.84,3.44 4.26,7 4.26,10.68 0,0.8 -1.193,4.5 -3.58,11.1 -1.134,3.12 -1.7,5.979 -1.7,8.58 0,2.76 0.36,5.33 1.08,7.71 0.72,2.379 1.88,4.629 3.48,6.75 z"
         style="fill:#000000;fill-opacity:1;fill-rule:nonzero;stroke:none"
         id="path7167"
         inkscape:connector-curvature="0" />
    </g>
    <g
       id="g7169"
       transform="matrix(0.35277777,0,0,-0.35277777,128.90904,93.270692)"
       style="display:inline;fill:#000000">
      <path
         d="m 0,0 h -4.8 v 9.3 h -6.24 V 0 h -4.8 v 9.3 h -4.2 l -2.82,4.62 h 7.02 v 30.9 h 4.8 v -30.9 h 6.24 v 30.9 H 0 Z"
         style="fill:#000000;fill-opacity:1;fill-rule:nonzero;stroke:none"
         id="path7171"
         inkscape:connector-curvature="0" />
    </g>
    <g
       id="g7173"
       transform="matrix(0.35277777,0,0,-0.35277777,135.08957,90.394388)"
       style="display:inline;fill:#000000">
      <path
         d="m 0,0 v 28.813 c 0,1.558 -0.261,2.636 -0.78,3.235 -0.52,0.598 -1.32,0.899 -2.4,0.899 -1.08,0 -1.87,-0.33 -2.37,-0.989 C -6.051,31.298 -6.3,30.25 -6.3,28.813 V 0 c 0,-1.518 0.27,-2.586 0.81,-3.205 0.54,-0.619 1.329,-0.928 2.37,-0.928 C -1.041,-4.133 0,-2.756 0,0 m 4.8,-1.324 c 0,-2.317 -0.74,-4.215 -2.22,-5.692 -1.48,-1.478 -3.4,-2.217 -5.76,-2.217 -2.361,0 -4.29,0.729 -5.79,2.187 -1.5,1.458 -2.25,3.365 -2.25,5.722 v 31.401 c 0,2.317 0.75,4.204 2.25,5.662 1.5,1.458 3.429,2.188 5.79,2.188 2.28,0 4.18,-0.74 5.7,-2.218 1.52,-1.478 2.28,-3.356 2.28,-5.632 z"
         style="fill:#000000;fill-opacity:1;fill-rule:nonzero;stroke:none"
         id="path7175"
         inkscape:connector-curvature="0" />
    </g>
    <g
       id="g7177"
       transform="matrix(0.35277777,0,0,-0.35277777,142.96332,84.041954)"
       style="display:inline;fill:#000000">
      <path
         d="m 0,0 c 0,3.519 -1.041,6.699 -3.12,9.54 -0.681,0.919 -1.72,1.98 -3.12,3.18 v -24.78 c 1.4,1.16 2.439,2.18 3.12,3.06 C -1.041,-6.28 0,-3.28 0,0 m 4.92,0.54 c 0,-3.96 -0.951,-7.491 -2.85,-10.59 -1.901,-3.1 -4.671,-5.651 -8.31,-7.65 v -8.46 h -4.92 v 46.8 c 0.639,0 2.019,-0.52 4.14,-1.56 3.159,-1.56 5.739,-3.58 7.74,-6.06 2.8,-3.48 4.2,-7.641 4.2,-12.48"
         style="fill:#000000;fill-opacity:1;fill-rule:nonzero;stroke:none"
         id="path7179"
         inkscape:connector-curvature="0" />
    </g>
  </g>
  <g
     inkscape:label="Layer 1"
     inkscape:groupmode="layer"
     id="layer1"
     style="display:inline"
     transform="translate(-58.082344,-36.826389)">
    <g
       transform="matrix(0.35277777,0,0,-0.35277777,19.982204,738.85401)"
       id="g7123"
       style="fill:#000000">
      <g
         id="g7125"
         clip-path="url(#clipPath7129)"
         style="fill:#000000">
        <g
           id="g7131"
           transform="translate(339.8984,1758.1016)"
           style="fill:#000000">
          <path
             d="m 0,0 c -25.214,-25.215 -58.739,-39.102 -94.398,-39.102 -35.66,0 -69.185,13.887 -94.399,39.102 -25.215,25.214 -39.101,58.739 -39.101,94.398 0,35.66 13.886,69.184 39.101,94.399 25.214,25.215 58.739,39.101 94.399,39.101 35.659,0 69.183,-13.886 94.398,-39.101 C 25.215,163.582 39.102,130.058 39.102,94.398 39.102,58.739 25.215,25.214 0,0 m -94.398,231.898 c -75.94,0 -137.5,-61.56 -137.5,-137.5 0,-75.939 61.56,-137.5 137.5,-137.5 75.939,0 137.5,61.561 137.5,137.5 0,75.94 -61.561,137.5 -137.5,137.5"
             style="fill:#000000;fill-opacity:1;fill-rule:evenodd;stroke:none"
             id="path7133"
             inkscape:connector-curvature="0" />
        </g>
        <g
           id="g7135"
           transform="translate(332.8281,1765.1719)"
           style="fill:#000000">
          <path
             d="m 0,0 c -23.326,-23.325 -54.34,-36.172 -87.328,-36.172 -32.988,0 -64.002,12.847 -87.328,36.172 -11.342,11.342 -20.19,24.506 -26.296,38.828 h -2.156 c 18.968,-45.228 63.662,-77 115.78,-77 52.118,0 96.811,31.772 115.78,77 H 26.295 C 20.189,24.506 11.341,11.342 0,0 m -174.656,174.656 c 23.326,23.326 54.34,36.172 87.328,36.172 32.988,0 64.002,-12.846 87.328,-36.172 11.34,-11.341 20.181,-24.51 26.295,-38.828 h 2.158 c -18.97,45.23 -63.663,77 -115.781,77 -52.118,0 -96.812,-31.77 -115.781,-77 h 2.157 c 6.115,14.318 14.955,27.487 26.296,38.828"
             style="fill:#000000;fill-opacity:1;fill-rule:evenodd;stroke:none"
             id="path7137"
             inkscape:connector-curvature="0" />
        </g>
        <path
           d="m 114,1887 h 262 v 4 H 114 Z m 0,-73 h 262 v 4 H 114 Z"
           style="fill:#000000;fill-opacity:1;fill-rule:evenodd;stroke:none"
           id="path7139"
           inkscape:connector-curvature="0" />
        <g
           id="g7341"
           transform="translate(263.6538,1918.293)"
           style="fill:#000000" />
      </g>
    </g>
  </g>
  <g
     inkscape:groupmode="layer"
     id="layer3"
     inkscape:label="Layer 2"
     style="display:inline"
     transform="translate(-58.082344,-36.826389)">
    <circle
       style="opacity:0;fill:#000000;fill-opacity:1;stroke:#ff0000;stroke-width:0.00446581;stroke-linecap:round;stroke-linejoin:round;stroke-miterlimit:4;stroke-dasharray:none;stroke-opacity:1"
       id="path10738"
       cx="41.279137"
       cy="130.02643"
       r="37.135269"
       transform="matrix(-0.35845242,0.933548,0.933548,0.35845242,0,0)" />
    <g
       aria-label="FOUR FOR YOU"
       style="font-style:normal;font-variant:normal;font-weight:600;font-stretch:normal;font-size:5.64444447px;line-height:1.25;font-family:Oswald;-inkscape-font-specification:'Oswald Semi-Bold';font-variant-ligatures:normal;font-variant-caps:normal;font-variant-numeric:normal;font-feature-settings:normal;text-align:start;letter-spacing:1.05833328px;word-spacing:0px;writing-mode:lr-tb;text-anchor:start;fill:#000000;fill-opacity:1;stroke:none;stroke-width:0.26458332"
       id="text10742">
      <path
         d="m 83.689892,55.970896 1.545009,-1.15732 0.38239,0.510486 -0.804128,0.602348 0.737707,0.98483 0.682154,-0.51098 0.389157,0.51952 -0.682153,0.510981 1.231768,1.644396 -0.740882,0.554972 z"
         id="path1566"
         inkscape:connector-curvature="0" />
      <path
         d="m 90.388671,57.02994 q -0.630455,0.364286 -1.088456,0.192156 -0.460826,-0.177016 -0.83076,-0.817246 l -0.852826,-1.475949 q -0.369934,-0.640229 -0.287515,-1.118104 0.08242,-0.477874 0.712874,-0.84216 0.625568,-0.361463 1.08357,-0.189333 0.460065,0.164418 0.827175,0.79976 l 0.85565,1.480836 q 0.367111,0.635343 0.285452,1.125815 -0.0796,0.482762 -0.705164,0.844225 z m -0.333223,-0.576696 q 0.205265,-0.118605 0.194616,-0.294983 -0.0086,-0.184089 -0.149781,-0.428451 l -1.081564,-1.871816 q -0.141197,-0.244362 -0.290751,-0.333959 -0.147492,-0.09731 -0.352756,0.0213 -0.205265,0.118605 -0.199503,0.297807 0.0078,0.17149 0.14902,0.415853 l 1.081564,1.871816 q 0.144021,0.249249 0.291512,0.346557 0.147491,0.09731 0.357643,-0.02412 z"
         id="path1568"
         inkscape:connector-curvature="0" />
      <path
         d="m 94.251283,55.129325 q -0.469775,0.193328 -0.800423,0.146288 -0.332796,-0.05226 -0.566999,-0.309894 -0.234203,-0.257634 -0.42753,-0.727409 l -1.190036,-2.891727 0.845595,-0.347989 1.239442,3.011781 q 0.124589,0.302744 0.268551,0.444921 0.143963,0.142178 0.373631,0.04766 0.229668,-0.09452 0.231857,-0.29684 0.0022,-0.202324 -0.122399,-0.505068 l -1.239441,-3.01178 0.850814,-0.350137 1.190036,2.891727 q 0.193327,0.469775 0.208302,0.817628 0.01497,0.347854 -0.189861,0.621366 -0.201764,0.266143 -0.671539,0.45947 z"
         id="path1570"
         inkscape:connector-curvature="0" />
      <path
         d="m 95.919165,49.602366 1.1467,-0.300156 q 0.715323,-0.18724 1.144321,-0.01947 0.428999,0.167769 0.597658,0.812105 0.112916,0.431378 0.06282,0.730386 -0.05152,0.293548 -0.321578,0.510101 l 1.176153,1.996806 -0.922821,0.241554 -1.026922,-1.872499 -0.327629,0.08576 0.524559,2.003996 -0.895519,0.234407 z m 1.656195,1.579421 q 0.316708,-0.0829 0.402278,-0.268668 0.0896,-0.192657 0.0024,-0.525746 -0.08576,-0.327629 -0.24045,-0.450507 -0.154691,-0.122877 -0.455017,-0.04427 l -0.311247,0.08147 0.33446,1.277751 z"
         id="path1572"
         inkscape:connector-curvature="0" />
      <path
         d="m 103.49874,48.182739 1.92697,-0.114919 0.038,0.636691 -1.00292,0.05981 0.0733,1.228306 0.8508,-0.05074 0.0386,0.64796 -0.8508,0.05074 0.12231,2.050934 -0.92404,0.05511 z"
         id="path1574"
         inkscape:connector-curvature="0" />
      <path
         d="m 108.50642,52.757404 q -0.72685,-0.04324 -1.01429,-0.439191 -0.2871,-0.401582 -0.24318,-1.139699 l 0.10123,-1.701613 q 0.0439,-0.738118 0.37594,-1.091556 0.33202,-0.353439 1.05887,-0.310195 0.72121,0.04291 1.00865,0.438856 0.2934,0.390648 0.24982,1.12313 l -0.10157,1.707248 q -0.0436,0.732483 -0.3819,1.096855 -0.33236,0.359073 -1.05357,0.316165 z m 0.0395,-0.664869 q 0.23665,0.01408 0.32492,-0.138993 0.0942,-0.158372 0.111,-0.440096 l 0.12839,-2.158006 q 0.0168,-0.281724 -0.0587,-0.438883 -0.0695,-0.162459 -0.30615,-0.176538 -0.23665,-0.01408 -0.33055,0.138657 -0.0879,0.147438 -0.1047,0.429162 l -0.12839,2.158007 q -0.0171,0.287358 0.0524,0.449817 0.0695,0.162459 0.31178,0.176873 z"
         id="path1576"
         inkscape:connector-curvature="0" />
      <path
         d="m 112.39813,48.501332 1.16356,0.226103 q 0.72585,0.141045 1.03986,0.478064 0.31402,0.337019 0.18697,0.990834 -0.0851,0.437724 -0.25972,0.685536 -0.17357,0.242272 -0.51078,0.320498 l 0.19529,2.309206 -0.9364,-0.181959 -0.11461,-2.13253 -0.33245,-0.0646 -0.39514,2.033475 -0.90869,-0.176575 z m 0.80873,2.14091 q 0.32137,0.06245 0.47896,-0.06793 0.1642,-0.134843 0.22988,-0.472832 0.0646,-0.332449 -0.0216,-0.510202 -0.0862,-0.177752 -0.39096,-0.23697 l -0.31582,-0.06137 -0.25195,1.296548 z"
         id="path1578"
         inkscape:connector-curvature="0" />
      <path
         d="m 119.36162,53.283465 0.2312,-2.891406 0.80842,0.334493 -0.16128,1.6742 1.03229,-1.313811 0.78756,0.325861 -1.86891,2.213788 -0.69273,1.674214 -0.82928,-0.343125 z"
         id="path1580"
         inkscape:connector-curvature="0" />
      <path
         d="m 122.63746,56.938029 q -0.63296,-0.359922 -0.71589,-0.842122 -0.0801,-0.487107 0.28536,-1.129877 l 0.84261,-1.481806 q 0.3655,-0.642771 0.81952,-0.813154 0.45401,-0.170383 1.08696,0.189538 0.62805,0.357132 0.71098,0.839332 0.0906,0.480084 -0.27208,1.117947 l -0.8454,1.486713 q -0.36271,0.637864 -0.82721,0.81527 -0.4568,0.17529 -1.08485,-0.181841 z m 0.32923,-0.578984 q 0.20608,0.117184 0.35289,0.01886 0.15452,-0.100441 0.29402,-0.345774 l 1.0686,-1.879244 q 0.13951,-0.245332 0.14124,-0.419663 0.009,-0.176447 -0.19665,-0.293631 -0.20608,-0.117184 -0.3578,-0.02165 -0.14402,0.09342 -0.28353,0.33875 l -1.0686,1.879244 q -0.1423,0.250239 -0.15173,0.426687 -0.009,0.176447 0.20156,0.296421 z"
         id="path1582"
         inkscape:connector-curvature="0" />
      <path
         d="m 126.22894,59.311186 q -0.40416,-0.307763 -0.5306,-0.616882 -0.12301,-0.313609 -0.019,-0.64588 0.10403,-0.332271 0.41179,-0.736432 l 1.89445,-2.487837 0.72749,0.553973 -1.9731,2.591122 q -0.19834,0.260459 -0.24831,0.456526 -0.05,0.196067 0.14761,0.346528 0.19759,0.150462 0.37331,0.05014 0.17571,-0.100319 0.37405,-0.360778 l 1.9731,-2.591123 0.73198,0.557392 -1.89445,2.487837 q -0.30776,0.404161 -0.6004,0.59281 -0.29264,0.188648 -0.63217,0.150041 -0.33161,-0.03968 -0.73577,-0.347441 z"
         id="path1584"
         inkscape:connector-curvature="0" />
    </g>
    <g
       aria-label="YOU GO!!"
       style="font-style:normal;font-variant:normal;font-weight:600;font-stretch:normal;font-size:5.64444447px;line-height:1.25;font-family:Oswald;-inkscape-font-specification:'Oswald, Semi-Bold';font-variant-ligatures:normal;font-variant-caps:normal;font-variant-numeric:normal;font-feature-settings:normal;text-align:start;letter-spacing:1.05833328px;word-spacing:0px;writing-mode:lr-tb;text-anchor:start;fill:#000000;fill-opacity:1;stroke:none;stroke-width:0.26458332"
       id="text1561">
      <path
         d="m 94.750113,118.42733 0.05314,-2.90015 0.827443,0.2842 -0.05812,1.68094 0.949627,-1.37474 0.806089,0.27686 -1.729383,2.32442 -0.588568,1.71361 -0.848796,-0.29154 z"
         style="font-style:normal;font-variant:normal;font-weight:600;font-stretch:normal;font-size:5.64444447px;font-family:Oswald;-inkscape-font-specification:'Oswald, Semi-Bold';font-variant-ligatures:normal;font-variant-caps:normal;font-variant-numeric:normal;font-feature-settings:normal;text-align:start;letter-spacing:1.05833328px;writing-mode:lr-tb;text-anchor:start;stroke-width:0.26458332"
         id="path8884"
         inkscape:connector-curvature="0" />
      <path
         d="m 98.412331,121.43678 q -0.710133,-0.1609 -0.929335,-0.59833 -0.217954,-0.44294 -0.05456,-1.16408 l 0.376681,-1.66248 q 0.163395,-0.72114 0.548486,-1.01587 0.385091,-0.29472 1.095224,-0.13382 0.704633,0.15965 0.923833,0.59708 0.22595,0.43317 0.0638,1.14881 l -0.37792,1.66799 q -0.162153,0.71564 -0.555243,1.02012 -0.386339,0.30023 -1.090966,0.14058 z m 0.14718,-0.64958 q 0.231206,0.0524 0.343199,-0.0843 0.118745,-0.14093 0.181109,-0.41618 l 0.477712,-2.10838 q 0.06236,-0.27524 0.01347,-0.44259 -0.04215,-0.17159 -0.273351,-0.22398 -0.231206,-0.0524 -0.348704,0.083 -0.110745,0.13117 -0.17311,0.40642 l -0.477712,2.10838 q -0.06361,0.28075 -0.02147,0.45235 0.04215,0.1716 0.278856,0.22523 z"
         style="font-style:normal;font-variant:normal;font-weight:600;font-stretch:normal;font-size:5.64444447px;font-family:Oswald;-inkscape-font-specification:'Oswald, Semi-Bold';font-variant-ligatures:normal;font-variant-caps:normal;font-variant-numeric:normal;font-feature-settings:normal;text-align:start;letter-spacing:1.05833328px;writing-mode:lr-tb;text-anchor:start;stroke-width:0.26458332"
         id="path8886"
         inkscape:connector-curvature="0" />
      <path
         d="m 102.67492,122.14441 q -0.50514,-0.0537 -0.77347,-0.2526 -0.26774,-0.20446 -0.35096,-0.54254 -0.0832,-0.33808 -0.0295,-0.84323 l 0.33092,-3.10947 0.90926,0.0968 -0.34465,3.23856 q -0.0346,0.32554 0.0242,0.51912 0.0589,0.19358 0.30583,0.21986 0.24696,0.0263 0.34525,-0.15057 0.0983,-0.17686 0.13294,-0.5024 l 0.34465,-3.23856 0.91488,0.0974 -0.33092,3.10947 q -0.0538,0.50515 -0.20627,0.81814 -0.15251,0.313 -0.46289,0.45593 -0.30417,0.13792 -0.80932,0.0842 z"
         style="font-style:normal;font-variant:normal;font-weight:600;font-stretch:normal;font-size:5.64444447px;font-family:Oswald;-inkscape-font-specification:'Oswald, Semi-Bold';font-variant-ligatures:normal;font-variant-caps:normal;font-variant-numeric:normal;font-feature-settings:normal;text-align:start;letter-spacing:1.05833328px;writing-mode:lr-tb;text-anchor:start;stroke-width:0.26458332"
         id="path8888"
         inkscape:connector-curvature="0" />
      <path
         d="m 109.34931,122.25374 q -0.66404,0.0517 -0.98257,-0.33117 -0.31334,-0.3889 -0.37246,-1.14861 l -0.11868,-1.52503 q -0.0604,-0.77659 0.20672,-1.19934 0.27235,-0.42883 1.00392,-0.48576 0.70343,-0.0547 1.02839,0.26532 0.32497,0.32007 0.37533,0.96722 l 0.0206,0.26449 -0.90039,0.0701 -0.025,-0.32077 q -0.0245,-0.31513 -0.10907,-0.45575 -0.0793,-0.14669 -0.32696,-0.12742 -0.25324,0.0197 -0.31325,0.19423 -0.06,0.17451 -0.0351,0.49528 l 0.15766,2.02587 q 0.025,0.32076 0.12857,0.48821 0.10318,0.16181 0.35079,0.14254 0.24198,-0.0188 0.32363,-0.20635 0.0868,-0.19359 0.0614,-0.51998 l -0.0377,-0.48396 -0.44457,0.0346 -0.0438,-0.56274 1.28305,-0.0998 0.18218,2.34101 -0.60776,0.0473 -0.0934,-0.40035 q -0.17143,0.4889 -0.71166,0.53095 z"
         style="font-style:normal;font-variant:normal;font-weight:600;font-stretch:normal;font-size:5.64444447px;font-family:Oswald;-inkscape-font-specification:'Oswald, Semi-Bold';font-variant-ligatures:normal;font-variant-caps:normal;font-variant-numeric:normal;font-feature-settings:normal;text-align:start;letter-spacing:1.05833328px;writing-mode:lr-tb;text-anchor:start;stroke-width:0.26458332"
         id="path8890"
         inkscape:connector-curvature="0" />
      <path
         d="m 113.7151,121.65781 q -0.71451,0.14014 -1.09194,-0.17121 -0.37852,-0.3169 -0.52083,-1.0425 l -0.3281,-1.67275 q -0.14231,-0.72559 0.0906,-1.15091 0.23293,-0.42532 0.94745,-0.56547 0.70898,-0.13905 1.08641,0.1723 0.38188,0.30473 0.52311,1.02479 l 0.32918,1.67829 q 0.14123,0.72006 -0.0951,1.15754 -0.23186,0.43086 -0.94084,0.56992 z m -0.12819,-0.65359 q 0.23263,-0.0456 0.27976,-0.21593 0.0516,-0.17693 -0.003,-0.45387 l -0.41609,-2.1214 q -0.0543,-0.27695 -0.16673,-0.4102 -0.10797,-0.13988 -0.3406,-0.0943 -0.23264,0.0456 -0.2853,0.21701 -0.0482,0.16476 0.006,0.4417 l 0.41608,2.12141 q 0.0554,0.28248 0.16337,0.42236 0.10797,0.13988 0.34614,0.0932 z"
         style="font-style:normal;font-variant:normal;font-weight:600;font-stretch:normal;font-size:5.64444447px;font-family:Oswald;-inkscape-font-specification:'Oswald, Semi-Bold';font-variant-ligatures:normal;font-variant-caps:normal;font-variant-numeric:normal;font-feature-settings:normal;text-align:start;letter-spacing:1.05833328px;writing-mode:lr-tb;text-anchor:start;stroke-width:0.26458332"
         id="path8892"
         inkscape:connector-curvature="0" />
      <path
         d="m 115.30425,116.53668 0.81805,-0.2392 0.67216,3.38486 -0.28714,0.084 z m 1.04257,3.60587 0.78014,-0.2281 0.22652,0.77471 -0.78013,0.22811 z"
         style="font-style:normal;font-variant:normal;font-weight:600;font-stretch:normal;font-size:5.64444447px;font-family:Oswald;-inkscape-font-specification:'Oswald, Semi-Bold';font-variant-ligatures:normal;font-variant-caps:normal;font-variant-numeric:normal;font-feature-settings:normal;text-align:start;letter-spacing:1.05833328px;writing-mode:lr-tb;text-anchor:start;stroke-width:0.26458332"
         id="path8894"
         inkscape:connector-curvature="0" />
      <path
         d="m 117.35352,115.89262 0.80062,-0.29229 0.89253,3.33353 -0.28101,0.1026 z m 1.27664,3.5298 0.76351,-0.27874 0.27681,0.75821 -0.76351,0.27874 z"
         style="font-style:normal;font-variant:normal;font-weight:600;font-stretch:normal;font-size:5.64444447px;font-family:Oswald;-inkscape-font-specification:'Oswald, Semi-Bold';font-variant-ligatures:normal;font-variant-caps:normal;font-variant-numeric:normal;font-feature-settings:normal;text-align:start;letter-spacing:1.05833328px;writing-mode:lr-tb;text-anchor:start;stroke-width:0.26458332"
         id="path8896"
         inkscape:connector-curvature="0" />
    </g>
    <g
       style="fill:#000000;stroke:none"
       transform="matrix(0.0035463,0,0,-0.0035463,99.496699,69.683893)"
       id="g1668">
      <path
         inkscape:connector-curvature="0"
         d="m 3108,3784 c -5,-4 -8,-29 -8,-55 0,-58 -66,-194 -122,-251 -48,-48 -80,-56 -286,-68 -242,-15 -404,-59 -591,-162 -331,-183 -650,-603 -761,-1004 -12,-44 -26,-83 -31,-89 -6,-6 -110,-10 -267,-11 -324,-1 -440,-20 -625,-104 l -47,-21 -75,46 c -41,26 -92,64 -115,86 -48,47 -100,54 -124,17 -20,-32 -46,-125 -46,-164 v -33 l 68,2 c 59,1 76,-3 145,-35 88,-42 93,-50 122,-178 58,-257 137,-412 285,-561 83,-83 194,-162 314,-224 44,-22 81,-45 83,-51 2,-6 -10,-28 -27,-49 -23,-29 -30,-48 -30,-81 0,-60 25,-84 86,-84 36,0 77,-15 188,-67 77,-36 180,-80 227,-97 l 86,-31 -146,-1 c -118,-1 -166,-6 -251,-27 l -105,-25 -25,23 c -38,36 -109,64 -165,66 -27,1 -63,4 -78,8 -26,5 -22,8 43,30 89,30 120,63 120,126 0,56 -33,97 -98,122 -72,28 -283,25 -422,-6 C 303,803 264,786 245,749 193,649 292,574 515,544 l 50,-6 -87,-22 C 371,489 330,457 330,399 c 0,-48 27,-81 91,-108 149,-64 328,-66 512,-3 58,19 58,19 83,-1 14,-11 58,-32 97,-48 66,-26 83,-28 204,-29 121,0 142,3 230,31 119,37 153,66 153,132 -1,53 -18,85 -61,109 -28,16 -29,18 -9,14 14,-3 77,-10 140,-16 63,-6 174,-17 247,-26 216,-25 393,6 601,106 115,55 171,91 252,161 72,61 372,399 466,525 84,112 164,266 193,372 37,136 81,183 184,203 32,5 76,17 99,25 22,8 61,14 87,14 65,0 91,21 91,71 0,47 -23,96 -80,167 -53,67 -78,69 -114,8 -27,-46 -82,-86 -176,-130 -92,-43 -114,-38 -325,69 -103,52 -192,95 -199,95 -7,0 -20,8 -30,18 -15,18 -14,31 18,213 80,450 84,552 31,799 l -34,162 92,100 c 51,55 105,106 120,114 49,26 67,51 67,93 0,32 -6,44 -32,67 -59,49 -200,99 -220,78 z m 135,-150 c 23,-13 36,-24 29,-24 -7,0 -69,-56 -138,-125 -82,-81 -130,-122 -139,-119 -21,8 -19,27 5,42 12,7 40,43 64,80 24,37 53,76 65,86 13,12 21,31 21,51 0,53 14,54 93,9 z m -643,-308 c -14,-8 -71,-30 -127,-49 -56,-20 -117,-44 -135,-53 -56,-28 -249,-163 -330,-231 -100,-83 -211,-207 -206,-230 7,-38 37,-21 139,80 95,96 332,282 405,320 63,32 319,128 410,153 145,39 149,33 43,-61 -128,-113 -368,-361 -470,-485 -108,-133 -213,-279 -205,-287 15,-15 93,57 179,164 182,227 553,604 637,648 40,21 45,8 43,-108 -4,-202 -43,-377 -159,-729 -41,-126 -72,-232 -69,-238 4,-6 -32,-10 -103,-10 -224,0 -452,-59 -702,-181 -77,-37 -140,-66 -140,-63 0,16 54,102 170,268 123,177 142,216 106,216 -23,0 -205,-237 -297,-387 -24,-40 -48,-73 -52,-73 -20,0 -219,104 -226,119 -11,19 6,71 63,200 47,107 102,201 171,293 37,49 55,82 55,102 0,27 -1,28 -22,14 -34,-22 -151,-182 -199,-272 -23,-43 -63,-130 -90,-195 -42,-102 -51,-116 -73,-119 -15,-2 -28,2 -31,10 -3,8 11,61 30,119 136,390 412,754 700,918 151,87 361,160 460,160 48,0 49,0 25,-13 z m 486,-411 c 6,-117 3,-150 -26,-325 -44,-269 -68,-382 -85,-399 -11,-12 -24,-12 -71,-3 -32,7 -70,12 -86,12 -15,0 -28,2 -28,5 0,3 11,27 24,53 13,26 49,124 79,217 91,278 129,448 143,645 l 8,105 18,-90 c 10,-49 21,-148 24,-220 z m -191,-786 c 124,-25 241,-63 291,-95 22,-14 30,-22 18,-19 -275,74 -575,70 -889,-12 -106,-28 -131,-42 -122,-67 9,-22 27,-20 144,14 219,63 531,80 733,41 106,-21 336,-84 347,-95 11,-11 -3,-16 -93,-31 -132,-23 -384,-83 -509,-120 -142,-43 -443,-152 -472,-171 -28,-18 -30,-44 -4,-44 11,0 143,40 294,90 288,94 440,135 622,170 61,11 130,25 155,30 35,7 48,6 59,-5 12,-12 9,-23 -24,-77 -109,-178 -263,-344 -542,-582 -95,-81 -173,-154 -173,-162 0,-22 36,-16 83,13 61,38 307,255 413,364 93,96 192,217 233,283 13,20 25,35 28,33 7,-8 -67,-183 -111,-260 -24,-42 -64,-104 -88,-139 -68,-94 -322,-381 -421,-475 -197,-185 -405,-283 -639,-300 -88,-6 -488,24 -488,37 0,3 44,19 98,34 219,63 535,189 737,294 85,44 111,62 113,80 2,12 1,22 -1,22 -3,0 -117,-48 -254,-106 -445,-190 -645,-257 -801,-270 -104,-8 -196,17 -371,101 -75,36 -144,65 -153,65 -9,0 -19,4 -23,9 -9,16 231,209 318,256 40,21 53,65 20,65 -29,0 -201,-112 -288,-186 -69,-60 -77,-64 -58,-34 11,19 46,82 78,140 32,58 72,128 91,155 46,70 182,219 288,315 201,183 314,260 519,350 89,40 117,57 117,71 0,12 -7,19 -19,19 -22,0 -166,-57 -248,-99 -150,-75 -401,-271 -551,-429 -65,-67 -80,-79 -66,-52 111,227 422,498 740,646 325,151 582,190 869,133 z m -1483,-63 c 83,-18 292,-123 296,-149 5,-23 -60,-83 -105,-98 -30,-9 -41,-6 -128,36 -105,52 -175,68 -175,42 0,-15 190,-117 217,-117 31,0 20,-25 -32,-72 -76,-69 -293,-341 -300,-375 -11,-50 -70,-206 -83,-220 -11,-11 -18,-10 -42,2 -66,34 -85,-5 -23,-46 44,-29 48,-38 29,-64 -14,-20 -16,-19 -83,13 -212,104 -380,257 -477,433 -38,70 -90,199 -82,206 3,3 17,-19 32,-49 77,-153 244,-334 413,-446 74,-50 96,-60 107,-51 8,6 14,15 14,19 0,5 -37,34 -82,66 -108,75 -270,233 -341,332 -55,76 -134,219 -156,282 -12,37 -17,39 105,-51 218,-162 600,-386 621,-365 16,15 -39,58 -190,147 -94,56 -199,120 -232,142 -105,71 -305,229 -305,242 0,18 16,22 117,36 118,16 294,6 528,-30 104,-16 193,-27 197,-25 21,13 3,34 -39,48 -108,36 -432,71 -590,64 -62,-3 -113,-4 -113,-2 0,6 138,47 203,60 100,19 603,12 699,-10 z m 2453,-97 25,-49 h -23 c -13,0 -77,-15 -144,-34 -144,-41 -175,-45 -197,-27 -15,13 -12,16 36,32 112,36 223,88 241,114 23,31 31,27 62,-36 z M 838,751 C 872,733 863,699 819,678 765,651 689,640 560,640 H 442 l 2,32 c 1,29 -3,33 -39,43 -38,11 -39,12 -18,23 41,22 128,31 278,28 95,-2 158,-7 173,-15 z m 89,-303 c 59,-28 31,-67 -69,-94 -33,-8 -104,-14 -188,-14 H 534 l 4,35 c 4,31 2,35 -19,35 -13,0 -30,4 -37,9 -14,8 25,22 118,41 63,13 292,5 327,-12 z m 670,-40 c 20,-16 16,-46 -10,-62 -42,-28 -148,-46 -276,-46 -122,0 -123,0 -118,22 9,33 -10,58 -43,58 -48,0 -35,18 23,30 126,27 390,26 424,-2 z"
         id="path1662" />
      <path
         inkscape:connector-curvature="0"
         d="m 2155,1506 c -49,-18 -124,-47 -165,-65 -135,-59 -442,-225 -484,-262 -40,-35 -40,-36 -17,-44 17,-5 41,2 90,27 287,146 502,253 594,293 81,36 107,52 107,66 0,26 -20,24 -125,-15 z"
         id="path1664" />
      <path
         inkscape:connector-curvature="0"
         d="m 3085,795 c -130,-29 -161,-41 -180,-69 -18,-24 -20,-89 -4,-118 14,-26 117,-73 197,-88 150,-30 407,14 474,80 23,23 28,37 28,77 0,59 -17,86 -73,115 -37,19 -60,22 -187,25 -124,2 -161,-1 -255,-22 z m 383,-72 c 18,-3 37,-14 44,-26 9,-17 7,-24 -12,-39 -42,-34 -120,-50 -265,-55 l -140,-5 v 33 c 0,30 -4,35 -44,50 l -44,16 84,17 c 46,9 100,18 119,20 41,5 211,-2 258,-11 z"
         id="path1666" />
    </g>
    <g
       id="g8847"
       transform="translate(0,45.357142)">
      <g
         aria-label="est. 2018"
         style="font-style:normal;font-variant:normal;font-weight:normal;font-stretch:normal;font-size:5.99722242px;line-height:1.25;font-family:Pacifico;-inkscape-font-specification:'Pacifico, Normal';font-variant-ligatures:normal;font-variant-caps:normal;font-variant-numeric:normal;font-feature-settings:normal;text-align:start;letter-spacing:0px;word-spacing:0px;writing-mode:lr-tb;text-anchor:start;fill:#000000;fill-opacity:1;stroke:none;stroke-width:0.26458332"
         id="text2246">
        <path
           d="m 98.663386,63.804132 q 0.07338,0 0.112889,0.06773 0.04516,0.06773 0.04516,0.186266 0,0.225778 -0.107245,0.349956 -0.208844,0.254 -0.592667,0.468489 -0.378177,0.214489 -0.8128,0.214489 -0.592666,0 -0.920044,-0.321734 -0.327378,-0.321733 -0.327378,-0.880533 0,-0.389467 0.163689,-0.722489 0.163689,-0.338667 0.451556,-0.536222 0.293511,-0.197556 0.6604,-0.197556 0.327377,0 0.524933,0.197556 0.197556,0.191911 0.197556,0.524933 0,0.389467 -0.282223,0.671689 -0.276577,0.276578 -0.942622,0.440267 0.141111,0.259644 0.536222,0.259644 0.254,0 0.575734,-0.174978 0.327377,-0.180622 0.564444,-0.468489 0.06773,-0.07902 0.1524,-0.07902 z m -1.4224,-0.818444 q -0.208844,0 -0.3556,0.242711 -0.141111,0.242711 -0.141111,0.587022 v 0.01129 q 0.333022,-0.07902 0.524933,-0.237067 0.191911,-0.158044 0.191911,-0.366889 0,-0.107244 -0.06209,-0.169333 -0.05644,-0.06773 -0.158045,-0.06773 z"
           style="font-style:normal;font-variant:normal;font-weight:normal;font-stretch:normal;font-size:5.64444447px;font-family:Pacifico;-inkscape-font-specification:'Pacifico, Normal';font-variant-ligatures:normal;font-variant-caps:normal;font-variant-numeric:normal;font-feature-settings:normal;text-align:start;writing-mode:lr-tb;text-anchor:start;stroke-width:0.26458332"
           id="path9659"
           inkscape:connector-curvature="0" />
        <path
           d="m 99.411716,65.215243 q -0.293511,0 -0.451556,-0.135466 -0.1524,-0.135467 -0.1524,-0.3048 0,-0.146756 0.107245,-0.254 0.107244,-0.107245 0.316089,-0.107245 0.07338,0 0.169333,0.01693 0.1016,0.01129 0.1524,0.01693 -0.0056,-0.146756 -0.06773,-0.276578 -0.05645,-0.129822 -0.146756,-0.248355 -0.09031,-0.124178 -0.169333,-0.214489 -0.174978,0.333022 -0.349956,0.553155 -0.169333,0.220134 -0.372533,0.417689 -0.1016,0.1016 -0.214489,0.1016 -0.09031,0 -0.146756,-0.06209 -0.05644,-0.06773 -0.05644,-0.163689 0,-0.112889 0.07902,-0.208844 l 0.07338,-0.09031 q 0.310444,-0.383822 0.468489,-0.632178 0.09596,-0.163689 0.225778,-0.434622 0.129822,-0.276578 0.254,-0.570089 0.107244,-0.248356 0.445911,-0.248356 0.158044,0 0.220133,0.02822 0.06209,0.02822 0.06209,0.09031 0,0.03387 -0.02258,0.107244 -0.02258,0.07338 -0.06209,0.146756 -0.1016,0.2032 -0.1016,0.344311 0,0.08467 0.05644,0.186266 0.06209,0.1016 0.186266,0.254 0.180619,0.237067 0.270929,0.4064 0.096,0.163689 0.096,0.361245 0,0.05644 -0.0113,0.158044 0.27658,-0.107244 0.64911,-0.570089 0.0677,-0.07902 0.1524,-0.07902 0.0734,0 0.11289,0.06773 0.0452,0.06773 0.0452,0.186266 0,0.214489 -0.10725,0.349956 -0.28222,0.349955 -0.54186,0.479778 -0.254,0.124177 -0.632182,0.135466 -0.225778,0.191911 -0.536222,0.191911 z"
           style="font-style:normal;font-variant:normal;font-weight:normal;font-stretch:normal;font-size:5.64444447px;font-family:Pacifico;-inkscape-font-specification:'Pacifico, Normal';font-variant-ligatures:normal;font-variant-caps:normal;font-variant-numeric:normal;font-feature-settings:normal;text-align:start;writing-mode:lr-tb;text-anchor:start;stroke-width:0.26458332"
           id="path9661"
           inkscape:connector-curvature="0" />
        <path
           d="m 101.70751,62.968754 q -0.0113,0.282223 -0.0113,0.440267 0,0.4064 0.0395,0.637822 0.0451,0.225778 0.14111,0.327378 0.1016,0.09596 0.27658,0.09596 0.0903,0 0.21449,-0.05645 0.12417,-0.05644 0.22577,-0.146755 0.0621,-0.05644 0.12418,-0.05644 0.0677,0 0.10725,0.07902 0.0452,0.07338 0.0452,0.180623 0,0.107244 -0.0452,0.208844 -0.0395,0.1016 -0.12418,0.169333 -0.29351,0.242712 -0.66605,0.242712 -0.53622,0 -0.78457,-0.445912 -0.24836,-0.451555 -0.24836,-1.174044 0,-0.248356 0.0169,-0.502356 h -0.22013 q -0.16933,0 -0.23142,-0.06209 -0.0564,-0.06209 -0.0564,-0.197556 0,-0.316089 0.254,-0.316089 h 0.32174 q 0.096,-0.620889 0.29351,-1.134533 0.19755,-0.513645 0.47413,-0.818445 0.28222,-0.3048 0.60396,-0.3048 0.23706,0 0.37253,0.208845 0.13547,0.208844 0.13547,0.524933 0,0.874889 -0.73378,1.524 h 0.63218 q 0.0903,0 0.12982,0.03951 0.0395,0.03951 0.0395,0.146756 0,0.389466 -0.63782,0.389466 z m 0.59831,-2.291644 q -0.0847,0 -0.19191,0.214489 -0.1016,0.208844 -0.19756,0.587022 -0.0903,0.372533 -0.1524,0.829733 0.33302,-0.287866 0.49671,-0.643466 0.16933,-0.361245 0.16933,-0.654756 0,-0.333022 -0.12417,-0.333022 z"
           style="font-style:normal;font-variant:normal;font-weight:normal;font-stretch:normal;font-size:5.64444447px;font-family:Pacifico;-inkscape-font-specification:'Pacifico, Normal';font-variant-ligatures:normal;font-variant-caps:normal;font-variant-numeric:normal;font-feature-settings:normal;text-align:start;writing-mode:lr-tb;text-anchor:start;stroke-width:0.26458332"
           id="path9663"
           inkscape:connector-curvature="0" />
        <path
           d="m 103.71225,65.091066 q -0.24835,0 -0.37817,-0.135467 -0.12418,-0.135467 -0.12418,-0.3556 0,-0.254 0.14111,-0.4064 0.14675,-0.1524 0.4064,-0.1524 0.24835,0 0.37253,0.124178 0.12982,0.118533 0.12982,0.3556 0,0.259644 -0.14675,0.417689 -0.14676,0.1524 -0.40076,0.1524 z"
           style="font-style:normal;font-variant:normal;font-weight:normal;font-stretch:normal;font-size:5.64444447px;font-family:Pacifico;-inkscape-font-specification:'Pacifico, Normal';font-variant-ligatures:normal;font-variant-caps:normal;font-variant-numeric:normal;font-feature-settings:normal;text-align:start;writing-mode:lr-tb;text-anchor:start;stroke-width:0.26458332"
           id="path9665"
           inkscape:connector-curvature="0" />
        <path
           d="m 108.69312,64.430666 q 0.11854,0 0.18063,0.07902 0.0621,0.07902 0.0621,0.197555 0,0.146756 -0.096,0.265289 -0.0903,0.112889 -0.24836,0.112889 -0.27093,0 -0.80715,-0.03951 -0.10725,-0.0056 -0.39511,-0.02258 -0.28787,-0.01693 -0.45156,-0.01693 -0.0734,0 -0.21449,0.0508 -0.0282,0.0056 -0.11289,0.02822 -0.079,0.02258 -0.13546,0.02258 -0.0903,0 -0.1524,-0.07902 -0.0565,-0.08467 -0.0565,-0.248356 0,-0.180622 0.0847,-0.276578 0.0847,-0.1016 0.26529,-0.180622 0.38382,-0.169333 0.72249,-0.428978 0.34431,-0.265289 0.54751,-0.570089 0.20884,-0.3048 0.20884,-0.581377 0,-0.220134 -0.1016,-0.321734 -0.096,-0.107244 -0.31044,-0.107244 -0.24836,0 -0.40076,0.135467 -0.14675,0.135466 -0.14675,0.378177 0,0.333023 -0.33303,0.333023 -0.15804,0 -0.24835,-0.09031 -0.0847,-0.09031 -0.0847,-0.259644 0,-0.282222 0.14676,-0.519289 0.14675,-0.237067 0.44026,-0.378178 0.29352,-0.146755 0.71685,-0.146755 0.508,0 0.79587,0.254 0.28786,0.254 0.28786,0.705555 0,0.428978 -0.37818,0.897467 -0.37253,0.468489 -1.07808,0.829733 z"
           style="font-style:normal;font-variant:normal;font-weight:normal;font-stretch:normal;font-size:5.64444447px;font-family:Pacifico;-inkscape-font-specification:'Pacifico, Normal';font-variant-ligatures:normal;font-variant-caps:normal;font-variant-numeric:normal;font-feature-settings:normal;text-align:start;writing-mode:lr-tb;text-anchor:start;stroke-width:0.26458332"
           id="path9667"
           inkscape:connector-curvature="0" />
        <path
           d="m 110.61532,65.091066 q -0.55315,0 -0.85795,-0.361245 -0.29916,-0.361244 -0.29916,-1.032933 0,-0.570089 0.17498,-1.004711 0.18062,-0.440267 0.49671,-0.682978 0.32173,-0.242711 0.74507,-0.242711 0.55315,0 0.85231,0.361244 0.3048,0.361245 0.3048,1.032934 0,0.570088 -0.18063,1.010355 -0.17497,0.434622 -0.49671,0.677333 -0.31609,0.242712 -0.73942,0.242712 z m 0.0564,-0.632178 q 0.3048,0 0.47977,-0.338667 0.17498,-0.338667 0.17498,-0.920044 0,-0.389467 -0.12982,-0.592667 -0.12982,-0.208844 -0.37818,-0.208844 -0.3048,0 -0.47978,0.344311 -0.17497,0.338666 -0.17497,0.920044 0,0.389467 0.12417,0.592667 0.12983,0.2032 0.38383,0.2032 z"
           style="font-style:normal;font-variant:normal;font-weight:normal;font-stretch:normal;font-size:5.64444447px;font-family:Pacifico;-inkscape-font-specification:'Pacifico, Normal';font-variant-ligatures:normal;font-variant-caps:normal;font-variant-numeric:normal;font-feature-settings:normal;text-align:start;writing-mode:lr-tb;text-anchor:start;stroke-width:0.26458332"
           id="path9669"
           inkscape:connector-curvature="0" />
        <path
           d="m 113.34141,65.091066 q -0.14111,0 -0.24835,-0.08467 -0.10725,-0.08467 -0.10725,-0.265289 l 0.006,-0.06209 q 0.0621,-0.581378 0.14675,-1.207911 0.0903,-0.632178 0.1524,-0.970844 l -0.44027,0.124177 -0.0677,0.01129 q -0.10724,0 -0.16933,-0.08467 -0.0621,-0.08467 -0.0621,-0.191912 l 0.006,-0.0508 q 0.0113,-0.107244 0.0677,-0.174977 0.0564,-0.06773 0.21449,-0.135467 0.16368,-0.06773 0.48542,-0.146756 l 0.23706,-0.05644 q 0.12983,-0.02822 0.21449,-0.02822 0.16369,0 0.24271,0.08467 0.0847,0.08467 0.0847,0.237067 0,0.06773 -0.0169,0.146756 -0.0903,0.440266 -0.34431,2.506133 -0.0452,0.349956 -0.40076,0.349956 z"
           style="font-style:normal;font-variant:normal;font-weight:normal;font-stretch:normal;font-size:5.64444447px;font-family:Pacifico;-inkscape-font-specification:'Pacifico, Normal';font-variant-ligatures:normal;font-variant-caps:normal;font-variant-numeric:normal;font-feature-settings:normal;text-align:start;writing-mode:lr-tb;text-anchor:start;stroke-width:0.26458332"
           id="path9671"
           inkscape:connector-curvature="0" />
        <path
           d="m 116.49639,63.386443 q 0.55316,0.282223 0.55316,0.756356 0,0.282222 -0.16369,0.496711 -0.15805,0.214489 -0.45156,0.333022 -0.29351,0.118534 -0.68298,0.118534 -0.54751,0 -0.85795,-0.214489 -0.3048,-0.214489 -0.3048,-0.598311 0,-0.242712 0.14675,-0.445912 0.14676,-0.2032 0.47414,-0.378177 -0.2032,-0.135467 -0.31045,-0.321734 -0.1016,-0.191911 -0.1016,-0.400755 0,-0.451556 0.33867,-0.705556 0.33867,-0.259644 0.92004,-0.259644 0.47978,0 0.76765,0.208844 0.29351,0.208845 0.29351,0.564445 0,0.259644 -0.14676,0.468489 -0.14675,0.2032 -0.47413,0.378177 z m -0.48542,-1.072444 q -0.23707,0 -0.37818,0.1016 -0.14111,0.09595 -0.14111,0.282222 0,0.254 0.42898,0.451556 0.28786,-0.141111 0.40075,-0.265289 0.11854,-0.124178 0.11854,-0.259645 0,-0.310444 -0.42898,-0.310444 z m -0.23142,2.229555 q 0.26529,0 0.41769,-0.09031 0.1524,-0.09031 0.1524,-0.248355 0,-0.124178 -0.13547,-0.237067 -0.12982,-0.112889 -0.48542,-0.270933 -0.25965,0.118533 -0.36125,0.242711 -0.1016,0.124178 -0.1016,0.270933 0,0.158045 0.13547,0.248356 0.14111,0.08467 0.37818,0.08467 z"
           style="font-style:normal;font-variant:normal;font-weight:normal;font-stretch:normal;font-size:5.64444447px;font-family:Pacifico;-inkscape-font-specification:'Pacifico, Normal';font-variant-ligatures:normal;font-variant-caps:normal;font-variant-numeric:normal;font-feature-settings:normal;text-align:start;writing-mode:lr-tb;text-anchor:start;stroke-width:0.26458332"
           id="path9673"
           inkscape:connector-curvature="0" />
      </g>
    </g>
    <g
       aria-label="GLEN COCOA"
       style="font-style:normal;font-variant:normal;font-weight:normal;font-stretch:normal;font-size:22.57777786px;line-height:1.25;font-family:'League Gothic';-inkscape-font-specification:'League Gothic, Normal';font-variant-ligatures:normal;font-variant-caps:normal;font-variant-numeric:normal;font-feature-settings:normal;text-align:start;letter-spacing:1.05833328px;word-spacing:0px;writing-mode:lr-tb;text-anchor:start;fill:#000000;fill-opacity:1;stroke:none;stroke-width:0.26458332"
       id="text8901"
       transform="translate(0,0.35983769)">
      <path
         d="m 69.325478,82.636695 v -2.551289 c 0,-0.451556 -0.09031,-0.767644 -0.316089,-1.038578 -0.112889,-0.112889 -0.293511,-0.180622 -0.496711,-0.180622 -0.428978,0 -0.632178,0.316089 -0.722489,0.6096 -0.06773,0.180622 -0.09031,0.383822 -0.09031,0.6096 v 9.979378 c 0,0.474133 0.112888,0.790222 0.338666,1.038578 0.112889,0.112888 0.270934,0.180622 0.474134,0.180622 0.428977,0 0.632177,-0.270934 0.722488,-0.6096 0.06773,-0.158045 0.09031,-0.361245 0.09031,-0.6096 v -3.002845 h -0.970845 v -2.054577 h 3.409245 v 8.263466 H 70.3189 l -0.293511,-0.790222 c -0.451556,0.564444 -1.106311,0.970844 -1.896534,0.970844 -0.790222,0 -1.332089,-0.2032 -1.738489,-0.564444 -0.4064,-0.338667 -0.677333,-0.767644 -0.857955,-1.2192 -0.2032,-0.519289 -0.293511,-1.128889 -0.270934,-1.806222 v -9.776178 c 0.02258,-0.654756 0.158045,-1.264356 0.4064,-1.783644 0.2032,-0.451556 0.496712,-0.903112 0.948267,-1.241778 0.451556,-0.338667 1.083734,-0.564445 1.896534,-0.564445 0.8128,0 1.4224,0.225778 1.873955,0.564445 0.451556,0.338666 0.767645,0.790222 0.970845,1.241778 0.248355,0.519288 0.383822,1.128888 0.4064,1.783644 v 2.551289 z"
         style="font-style:normal;font-variant:normal;font-weight:normal;font-stretch:normal;font-size:22.57777786px;font-family:'League Gothic';-inkscape-font-specification:'League Gothic, Normal';font-variant-ligatures:normal;font-variant-caps:normal;font-variant-numeric:normal;font-feature-settings:normal;text-align:start;letter-spacing:1.05833328px;writing-mode:lr-tb;text-anchor:start;stroke-width:0.26458332"
         id="path9640"
         inkscape:connector-curvature="0" />
      <path
         d="m 74.591744,76.676162 h 2.4384 V 91.01305 h 3.228622 v 2.257778 h -5.667022 z"
         style="font-style:normal;font-variant:normal;font-weight:normal;font-stretch:normal;font-size:22.57777786px;font-family:'League Gothic';-inkscape-font-specification:'League Gothic, Normal';font-variant-ligatures:normal;font-variant-caps:normal;font-variant-numeric:normal;font-feature-settings:normal;text-align:start;letter-spacing:1.05833328px;writing-mode:lr-tb;text-anchor:start;stroke-width:0.26458332"
         id="path9642"
         inkscape:connector-curvature="0" />
      <path
         d="m 82.308758,76.676162 h 5.576712 v 2.506133 h -3.138312 v 4.357511 h 2.257778 v 2.664178 h -2.257778 v 4.560711 h 3.138312 v 2.506133 h -5.576712 z"
         style="font-style:normal;font-variant:normal;font-weight:normal;font-stretch:normal;font-size:22.57777786px;font-family:'League Gothic';-inkscape-font-specification:'League Gothic, Normal';font-variant-ligatures:normal;font-variant-caps:normal;font-variant-numeric:normal;font-feature-settings:normal;text-align:start;letter-spacing:1.05833328px;writing-mode:lr-tb;text-anchor:start;stroke-width:0.26458332"
         id="path9644"
         inkscape:connector-curvature="0" />
      <path
         d="m 92.864221,84.623539 -0.2032,-0.767644 h -0.135467 v 9.414933 h -2.2352 V 76.676162 h 2.167467 l 2.370667,8.647288 0.2032,0.767645 h 0.135466 v -9.414933 h 2.2352 v 16.594666 h -2.167466 z"
         style="font-style:normal;font-variant:normal;font-weight:normal;font-stretch:normal;font-size:22.57777786px;font-family:'League Gothic';-inkscape-font-specification:'League Gothic, Normal';font-variant-ligatures:normal;font-variant-caps:normal;font-variant-numeric:normal;font-feature-settings:normal;text-align:start;letter-spacing:1.05833328px;writing-mode:lr-tb;text-anchor:start;stroke-width:0.26458332"
         id="path9646"
         inkscape:connector-curvature="0" />
      <path
         d="m 111.1427,87.581228 v 2.280356 c -0.0226,0.677333 -0.15805,1.286933 -0.4064,1.806222 -0.2032,0.451556 -0.51929,0.880533 -0.97085,1.2192 -0.45155,0.361244 -1.06115,0.564444 -1.87395,0.564444 -0.8128,0 -1.44498,-0.2032 -1.89654,-0.564444 -0.45155,-0.338667 -0.74506,-0.767644 -0.94826,-1.2192 -0.24836,-0.519289 -0.38383,-1.128889 -0.4064,-1.806222 v -9.776178 c 0.0226,-0.654756 0.15804,-1.264356 0.4064,-1.783644 0.2032,-0.451556 0.49671,-0.903112 0.94826,-1.241778 0.45156,-0.338667 1.08374,-0.564445 1.89654,-0.564445 0.8128,0 1.4224,0.225778 1.87395,0.564445 0.45156,0.338666 0.76765,0.790222 0.97085,1.241778 0.24835,0.519288 0.38382,1.128888 0.4064,1.783644 v 2.280356 h -2.28036 v -2.280356 c 0,-0.451556 -0.11289,-0.767644 -0.36124,-1.038578 -0.11289,-0.112889 -0.31609,-0.180622 -0.56445,-0.180622 -0.42898,0 -0.63218,0.316089 -0.74507,0.6096 -0.0677,0.180622 -0.0903,0.383822 -0.11288,0.6096 v 9.776178 c 0.0226,0.474133 0.15804,0.790222 0.38382,1.038578 0.11289,0.112888 0.27093,0.180622 0.47413,0.180622 0.51929,0 0.72249,-0.270934 0.83538,-0.6096 0.0677,-0.158045 0.0903,-0.361245 0.0903,-0.6096 v -2.280356 z"
         style="font-style:normal;font-variant:normal;font-weight:normal;font-stretch:normal;font-size:22.57777786px;font-family:'League Gothic';-inkscape-font-specification:'League Gothic, Normal';font-variant-ligatures:normal;font-variant-caps:normal;font-variant-numeric:normal;font-feature-settings:normal;text-align:start;letter-spacing:1.05833328px;writing-mode:lr-tb;text-anchor:start;stroke-width:0.26458332"
         id="path9648"
         inkscape:connector-curvature="0" />
      <path
         d="m 120.00624,89.861584 c -0.0226,0.677333 -0.15805,1.286933 -0.4064,1.806222 -0.2032,0.451556 -0.51929,0.880533 -0.97085,1.2192 -0.45155,0.361244 -1.06115,0.564444 -1.87395,0.564444 -0.8128,0 -1.44498,-0.2032 -1.89654,-0.564444 -0.45155,-0.338667 -0.74506,-0.767644 -0.94826,-1.2192 -0.24836,-0.519289 -0.38383,-1.128889 -0.4064,-1.806222 v -9.776178 c 0.0226,-0.654756 0.15804,-1.264356 0.4064,-1.783644 0.2032,-0.451556 0.49671,-0.903112 0.94826,-1.241778 0.45156,-0.338667 1.08374,-0.564445 1.89654,-0.564445 0.8128,0 1.4224,0.225778 1.87395,0.564445 0.45156,0.338666 0.76765,0.790222 0.97085,1.241778 0.24835,0.519288 0.38382,1.128888 0.4064,1.783644 z m -2.4384,-9.776178 c 0,-0.451556 -0.0903,-0.767644 -0.31609,-1.038578 -0.11289,-0.112889 -0.29351,-0.180622 -0.49671,-0.180622 -0.42898,0 -0.63218,0.316089 -0.72249,0.6096 -0.0677,0.180622 -0.0903,0.383822 -0.0903,0.6096 v 9.776178 c 0,0.474133 0.11289,0.790222 0.33866,1.038578 0.11289,0.112888 0.27094,0.180622 0.47414,0.180622 0.42897,0 0.63217,-0.270934 0.72249,-0.6096 0.0677,-0.158045 0.0903,-0.361245 0.0903,-0.6096 z"
         style="font-style:normal;font-variant:normal;font-weight:normal;font-stretch:normal;font-size:22.57777786px;font-family:'League Gothic';-inkscape-font-specification:'League Gothic, Normal';font-variant-ligatures:normal;font-variant-caps:normal;font-variant-numeric:normal;font-feature-settings:normal;text-align:start;letter-spacing:1.05833328px;writing-mode:lr-tb;text-anchor:start;stroke-width:0.26458332"
         id="path9650"
         inkscape:connector-curvature="0" />
      <path
         d="m 129.04617,87.581228 v 2.280356 c -0.0226,0.677333 -0.15805,1.286933 -0.4064,1.806222 -0.2032,0.451556 -0.51929,0.880533 -0.97085,1.2192 -0.45155,0.361244 -1.06115,0.564444 -1.87395,0.564444 -0.8128,0 -1.44498,-0.2032 -1.89653,-0.564444 -0.45156,-0.338667 -0.74507,-0.767644 -0.94827,-1.2192 -0.24836,-0.519289 -0.38382,-1.128889 -0.4064,-1.806222 v -9.776178 c 0.0226,-0.654756 0.15804,-1.264356 0.4064,-1.783644 0.2032,-0.451556 0.49671,-0.903112 0.94827,-1.241778 0.45155,-0.338667 1.08373,-0.564445 1.89653,-0.564445 0.8128,0 1.4224,0.225778 1.87395,0.564445 0.45156,0.338666 0.76765,0.790222 0.97085,1.241778 0.24835,0.519288 0.38382,1.128888 0.4064,1.783644 v 2.280356 h -2.28036 v -2.280356 c 0,-0.451556 -0.11289,-0.767644 -0.36124,-1.038578 -0.11289,-0.112889 -0.31609,-0.180622 -0.56445,-0.180622 -0.42897,0 -0.63217,0.316089 -0.74506,0.6096 -0.0677,0.180622 -0.0903,0.383822 -0.11289,0.6096 v 9.776178 c 0.0226,0.474133 0.15804,0.790222 0.38382,1.038578 0.11289,0.112888 0.27093,0.180622 0.47413,0.180622 0.51929,0 0.72249,-0.270934 0.83538,-0.6096 0.0677,-0.158045 0.0903,-0.361245 0.0903,-0.6096 v -2.280356 z"
         style="font-style:normal;font-variant:normal;font-weight:normal;font-stretch:normal;font-size:22.57777786px;font-family:'League Gothic';-inkscape-font-specification:'League Gothic, Normal';font-variant-ligatures:normal;font-variant-caps:normal;font-variant-numeric:normal;font-feature-settings:normal;text-align:start;letter-spacing:1.05833328px;writing-mode:lr-tb;text-anchor:start;stroke-width:0.26458332"
         id="path9652"
         inkscape:connector-curvature="0" />
      <path
         d="m 137.90971,89.861584 c -0.0226,0.677333 -0.15804,1.286933 -0.4064,1.806222 -0.2032,0.451556 -0.51929,0.880533 -0.97084,1.2192 -0.45156,0.361244 -1.06116,0.564444 -1.87396,0.564444 -0.8128,0 -1.44497,-0.2032 -1.89653,-0.564444 -0.45156,-0.338667 -0.74507,-0.767644 -0.94827,-1.2192 -0.24835,-0.519289 -0.38382,-1.128889 -0.4064,-1.806222 v -9.776178 c 0.0226,-0.654756 0.15805,-1.264356 0.4064,-1.783644 0.2032,-0.451556 0.49671,-0.903112 0.94827,-1.241778 0.45156,-0.338667 1.08373,-0.564445 1.89653,-0.564445 0.8128,0 1.4224,0.225778 1.87396,0.564445 0.45155,0.338666 0.76764,0.790222 0.97084,1.241778 0.24836,0.519288 0.38383,1.128888 0.4064,1.783644 z m -2.4384,-9.776178 c 0,-0.451556 -0.0903,-0.767644 -0.31609,-1.038578 -0.11288,-0.112889 -0.29351,-0.180622 -0.49671,-0.180622 -0.42897,0 -0.63217,0.316089 -0.72249,0.6096 -0.0677,0.180622 -0.0903,0.383822 -0.0903,0.6096 v 9.776178 c 0,0.474133 0.11289,0.790222 0.33867,1.038578 0.11289,0.112888 0.27093,0.180622 0.47413,0.180622 0.42898,0 0.63218,-0.270934 0.72249,-0.6096 0.0677,-0.158045 0.0903,-0.361245 0.0903,-0.6096 z"
         style="font-style:normal;font-variant:normal;font-weight:normal;font-stretch:normal;font-size:22.57777786px;font-family:'League Gothic';-inkscape-font-specification:'League Gothic, Normal';font-variant-ligatures:normal;font-variant-caps:normal;font-variant-numeric:normal;font-feature-settings:normal;text-align:start;letter-spacing:1.05833328px;writing-mode:lr-tb;text-anchor:start;stroke-width:0.26458332"
         id="path9654"
         inkscape:connector-curvature="0" />
      <path
         d="m 139.92795,93.270828 2.50613,-16.594666 h 2.98027 l 2.50613,16.594666 h -2.37066 l -0.45156,-3.386666 h -2.34809 l -0.45155,3.386666 z m 4.13173,-11.198578 -0.0677,-0.428977 h -0.13547 l -0.0677,0.428977 -0.69991,5.238045 h 1.67075 z"
         style="font-style:normal;font-variant:normal;font-weight:normal;font-stretch:normal;font-size:22.57777786px;font-family:'League Gothic';-inkscape-font-specification:'League Gothic, Normal';font-variant-ligatures:normal;font-variant-caps:normal;font-variant-numeric:normal;font-feature-settings:normal;text-align:start;letter-spacing:1.05833328px;writing-mode:lr-tb;text-anchor:start;stroke-width:0.26458332"
         id="path9656"
         inkscape:connector-curvature="0" />
    </g>
  </g>
</svg>
